<svg width="96" height="96" viewBox="0 0 96 96" fill="none" xmlns="http://www.w3.org/2000/svg">
<g clip-path="url(#clip0_9_3)">
<path d="M45.9464 82.0424C62.0367 77.7426 71.6074 61.1658 67.323 45.0172C63.0386 28.8687 46.5217 19.2634 30.4313 23.5632C14.3409 27.8631 4.77024 44.4398 9.05461 60.5885C13.3389 76.737 29.8559 86.3423 45.9464 82.0424Z" fill="url(#paint0_radial_9_3)"/>
<g style="mix-blend-mode:soft-light">
<path d="M45.9464 82.0424C62.0367 77.7426 71.6074 61.1658 67.323 45.0172C63.0386 28.8687 46.5217 19.2634 30.4313 23.5632C14.3409 27.8631 4.77024 44.4398 9.05461 60.5885C13.3389 76.737 29.8559 86.3423 45.9464 82.0424Z" fill="url(#paint1_radial_9_3)"/>
</g>
<g style="mix-blend-mode:soft-light">
<path d="M45.9464 82.0424C62.0367 77.7426 71.6074 61.1658 67.323 45.0172C63.0386 28.8687 46.5217 19.2634 30.4313 23.5632C14.3409 27.8631 4.77024 44.4398 9.05461 60.5885C13.3389 76.737 29.8559 86.3423 45.9464 82.0424Z" fill="url(#paint2_radial_9_3)"/>
</g>
<g style="mix-blend-mode:overlay">
<path d="M45.9464 82.0424C62.0367 77.7426 71.6074 61.1658 67.323 45.0172C63.0386 28.8687 46.5217 19.2634 30.4313 23.5632C14.3409 27.8631 4.77024 44.4398 9.05461 60.5885C13.3389 76.737 29.8559 86.3423 45.9464 82.0424Z" fill="url(#paint3_radial_9_3)" fill-opacity="0.7"/>
</g>
<mask id="mask0_9_3" style="mask-type:alpha" maskUnits="userSpaceOnUse" x="8" y="22" width="61" height="62">
<path d="M45.9464 82.0424C62.0367 77.7426 71.6074 61.1658 67.323 45.0172C63.0386 28.8687 46.5217 19.2634 30.4313 23.5632C14.3409 27.8631 4.77024 44.4398 9.05461 60.5885C13.3389 76.737 29.8559 86.3423 45.9464 82.0424Z" fill="white"/>
</mask>
<g mask="url(#mask0_9_3)">
<g filter="url(#filter0_f_9_3)">
<path d="M8.66701 59.7986C8.58843 59.3747 8.71362 59.2966 8.86528 59.7079C9.03376 60.1648 9.19795 61.13 9.36939 61.6928C9.82337 63.1831 10.4004 64.4303 10.9197 65.4314C12.5933 68.6572 14.2373 70.5847 15.7204 72.1938C20.5957 77.4828 24.9742 79.6506 29.062 81.0738C35.0542 83.1601 40.4645 82.8872 45.6502 81.7503C45.7809 81.7215 46.0267 82.5607 45.9287 82.7048C45.752 82.9643 45.4158 82.8434 45.179 82.8978C44.4987 83.0543 43.8123 83.1879 43.1198 83.2977C41.066 83.6234 38.9551 83.7329 36.7798 83.583C30.8649 83.1754 24.175 81.5584 16.6936 73.9686C16.2229 73.4911 15.7469 72.9833 15.2636 72.4299C14.8772 71.9874 14.4867 71.5197 14.0907 71.0136C12.7882 69.349 9.63845 65.0386 8.66701 59.7986ZM45.9111 82.7191C45.7888 82.7558 45.5485 81.9766 45.6227 81.7816C45.7348 81.4871 46.0551 81.6194 46.2392 81.5576C47.004 81.301 47.7624 81.0208 48.5138 80.7151C50.5741 79.8768 52.5824 78.849 54.5202 77.5747C59.3266 74.4141 64.285 70.2289 67.0769 60.6953C67.2547 60.0885 67.4212 59.4507 67.5725 58.7725C68.0322 56.7114 69.1134 51.2775 67.2566 45.3779C67.0999 44.8806 67.1727 44.5382 67.3557 44.9519C67.5886 45.4785 67.8575 46.6344 67.9954 47.2509C68.4369 49.2251 68.5763 50.9572 68.615 52.3759C68.738 56.8716 67.986 59.6984 67.2447 62.0888C64.8354 69.8587 61.0128 73.753 57.116 76.8587C53.6209 79.6443 49.8555 81.5331 45.9111 82.7191Z" fill="#401C02"/>
</g>
<g filter="url(#filter1_f_9_3)">
<path d="M8.66701 59.7986C8.58843 59.3747 8.71362 59.2966 8.86528 59.7079C9.03376 60.1648 9.19795 61.13 9.36939 61.6928C9.82337 63.1831 10.4004 64.4303 10.9197 65.4314C12.5933 68.6572 14.2373 70.5847 15.7204 72.1938C20.5957 77.4828 24.9742 79.6506 29.062 81.0738C35.0542 83.1601 40.4645 82.8872 45.6502 81.7503C45.7809 81.7215 46.0267 82.5607 45.9287 82.7048C45.752 82.9643 45.4158 82.8434 45.179 82.8978C44.4987 83.0543 43.8123 83.1879 43.1198 83.2977C41.066 83.6234 38.9551 83.7329 36.7798 83.583C30.8649 83.1754 24.175 81.5584 16.6936 73.9686C16.2229 73.4911 15.7469 72.9833 15.2636 72.4299C14.8772 71.9874 14.4867 71.5197 14.0907 71.0136C12.7882 69.349 9.63845 65.0386 8.66701 59.7986ZM45.9111 82.7191C45.7888 82.7558 45.5485 81.9766 45.6227 81.7816C45.7348 81.4871 46.0551 81.6194 46.2392 81.5576C47.004 81.301 47.7624 81.0208 48.5138 80.7151C50.5741 79.8768 52.5824 78.849 54.5202 77.5747C59.3266 74.4141 64.285 70.2289 67.0769 60.6953C67.2547 60.0885 67.4212 59.4507 67.5725 58.7725C68.0322 56.7114 69.1134 51.2775 67.2566 45.3779C67.0999 44.8806 67.1727 44.5382 67.3557 44.9519C67.5886 45.4785 67.8575 46.6344 67.9954 47.2509C68.4369 49.2251 68.5763 50.9572 68.615 52.3759C68.738 56.8716 67.986 59.6984 67.2447 62.0888C64.8354 69.8587 61.0128 73.753 57.116 76.8587C53.6209 79.6443 49.8555 81.5331 45.9111 82.7191Z" fill="#401C02"/>
</g>
</g>
<path d="M86.5407 35.1966C95.3808 31.4117 102.429 49.9044 77.3269 49.6357C66.5952 26.8724 86.2686 25.555 86.5407 35.1966Z" fill="url(#paint4_linear_9_3)"/>
<mask id="mask1_9_3" style="mask-type:alpha" maskUnits="userSpaceOnUse" x="74" y="29" width="21" height="21">
<path d="M86.541 35.1967C95.381 31.4116 102.43 49.9045 77.3272 49.6358C66.5954 26.8724 86.2689 25.5549 86.541 35.1967Z" fill="url(#paint5_linear_9_3)"/>
</mask>
<g mask="url(#mask1_9_3)">
<g filter="url(#filter2_f_9_3)">
<path d="M75.7564 34.6309C76.1061 33.4938 76.9885 32.4696 78.1571 31.8424C79.3255 31.2152 80.7611 30.9895 82.1635 31.251C82.8611 31.3876 83.553 31.6355 84.1939 32.0146C84.8348 32.3937 85.4205 32.885 85.9086 33.4777C86.3969 34.0705 86.7761 34.7571 87.0337 35.4806C87.2913 36.204 87.4044 36.9493 87.4329 37.6732L84.5578 35.8253C84.7322 35.7569 84.8992 35.7001 85.0736 35.6317C85.2481 35.5633 85.4266 35.514 85.6052 35.4648C85.7838 35.4155 85.9665 35.3853 86.1567 35.3435C86.3469 35.3016 86.5338 35.2906 86.7166 35.2603C87.4791 35.1926 88.2592 35.251 88.9998 35.4481C89.7405 35.6452 90.4417 35.9811 91.0528 36.4066C91.664 36.8323 92.1778 37.3594 92.5932 37.9381C93.4166 39.1073 93.8127 40.5104 93.734 41.8379C93.6551 43.1655 93.0973 44.3984 92.2144 45.1927C92.234 44.5983 92.224 44.0504 92.142 43.5384C92.0601 43.0263 91.9179 42.5574 91.7227 42.1203C91.3482 41.2726 90.7896 40.5853 90.1584 40.1141C89.5274 39.6427 88.8387 39.3642 88.1768 39.2997C87.515 39.2354 86.8717 39.3469 86.1782 39.6395L83.419 40.7866L83.3031 37.7915C83.2704 37.0486 83.1096 36.4039 82.7745 35.8275C82.4393 35.251 81.9182 34.7356 81.2086 34.3616C80.5107 33.9951 79.6624 33.7616 78.7311 33.7864C78.2654 33.7988 77.7817 33.8653 77.2724 33.9973C76.7862 34.1444 76.2819 34.3452 75.7564 34.6309Z" fill="#FF3E3E"/>
</g>
<g filter="url(#filter3_f_9_3)">
<path d="M76.3106 47.0625C76.1521 46.7474 76.0051 46.4396 75.8582 46.1319C75.7827 45.9684 75.7112 45.8241 75.6357 45.6608C75.5717 45.5047 75.5078 45.3488 75.4397 45.1737L75.0592 44.2073C74.9462 43.8721 74.8446 43.5444 74.7431 43.2167C74.3446 41.8941 74.052 40.5082 73.9461 39.1113C73.8403 37.7143 73.9363 36.2829 74.3277 34.9266L74.4865 34.4216C74.5409 34.2596 74.6141 34.0935 74.6875 33.9273L74.7938 33.6839C74.8268 33.6066 74.8786 33.5252 74.9117 33.4479L75.159 32.9835C75.5377 32.39 75.9858 31.8414 76.5161 31.3947C76.087 31.9391 75.7463 32.5242 75.4596 33.1274L75.2734 33.5983C75.2404 33.6756 75.2074 33.7529 75.1862 33.8376L75.1104 34.0844C75.0677 34.2538 75.0093 34.3966 74.9665 34.566L74.8531 35.051C74.5718 36.3632 74.5278 37.713 74.6326 39.0602C74.7259 40.4 74.968 41.7369 75.2599 43.0729C75.3423 43.4049 75.4132 43.7293 75.4882 44.073L75.7546 45.0645C75.7996 45.2246 75.8371 45.3964 75.882 45.5565C75.927 45.7167 75.9835 45.8842 76.0285 46.0444C76.1341 46.3912 76.2281 46.7306 76.3106 47.0625Z" fill="#FFBF5F"/>
</g>
<g filter="url(#filter4_f_9_3)">
<path d="M76.2864 31.9853C76.9397 30.9614 77.9517 30.1187 79.1576 29.6633C80.3521 29.2006 81.7144 29.1409 82.9805 29.4624C84.2582 29.7915 85.4481 30.5399 86.2738 31.6285C86.6883 32.1574 87.0128 32.776 87.2231 33.4199C87.4335 34.0638 87.5489 34.7286 87.5765 35.4025L86.6142 34.7842C87.2242 34.5199 87.8741 34.3469 88.5448 34.2694C89.2155 34.1919 89.9037 34.2404 90.5633 34.3854C91.8864 34.6945 93.0689 35.4545 93.9011 36.4816C94.7334 37.5088 95.2376 38.768 95.3299 40.058C95.4223 41.3478 95.0829 42.6227 94.4295 43.6466C94.4765 43.4962 94.5159 43.3576 94.5628 43.2073C94.6023 43.0685 94.6375 42.9107 94.6654 42.7645C94.7212 42.4722 94.7653 42.1725 94.7905 41.8769C94.8218 41.29 94.7843 40.7081 94.6709 40.1429C94.4249 39.0168 93.8715 37.9884 93.1008 37.1977C92.3303 36.4071 91.3425 35.8543 90.304 35.6626C89.2541 35.4635 88.1608 35.6141 87.1681 36.0425L86.2399 36.4467L86.2175 35.4315C86.1784 34.3399 85.8763 33.2761 85.2568 32.4023C84.6376 31.5284 83.7356 30.8666 82.6861 30.4874C81.6483 30.1156 80.4859 30.0413 79.3639 30.2881C78.8123 30.4094 78.2511 30.6229 77.7445 30.9043C77.4875 31.0509 77.2421 31.2049 76.9935 31.3896C76.8728 31.4762 76.7522 31.5627 76.6358 31.6684C76.5193 31.774 76.4029 31.8796 76.2864 31.9853Z" fill="#700000"/>
</g>
<g filter="url(#filter5_f_9_3)">
<path d="M76.2864 31.9853C76.9397 30.9614 77.9517 30.1187 79.1576 29.6633C80.3521 29.2006 81.7144 29.1409 82.9805 29.4624C84.2582 29.7915 85.4481 30.5399 86.2738 31.6285C86.6883 32.1574 87.0128 32.776 87.2231 33.4199C87.4335 34.0638 87.5489 34.7286 87.5765 35.4025L86.6142 34.7842C87.2242 34.5199 87.8741 34.3469 88.5448 34.2694C89.2155 34.1919 89.9037 34.2404 90.5633 34.3854C91.8864 34.6945 93.0689 35.4545 93.9011 36.4816C94.7334 37.5088 95.2376 38.768 95.3299 40.058C95.4223 41.3478 95.0829 42.6227 94.4295 43.6466C94.4765 43.4962 94.5159 43.3576 94.5628 43.2073C94.6023 43.0685 94.6375 42.9107 94.6654 42.7645C94.7212 42.4722 94.7653 42.1725 94.7905 41.8769C94.8218 41.29 94.7843 40.7081 94.6709 40.1429C94.4249 39.0168 93.8715 37.9884 93.1008 37.1977C92.3303 36.4071 91.3425 35.8543 90.304 35.6626C89.2541 35.4635 88.1608 35.6141 87.1681 36.0425L86.2399 36.4467L86.2175 35.4315C86.1784 34.3399 85.8763 33.2761 85.2568 32.4023C84.6376 31.5284 83.7356 30.8666 82.6861 30.4874C81.6483 30.1156 80.4859 30.0413 79.3639 30.2881C78.8123 30.4094 78.2511 30.6229 77.7445 30.9043C77.4875 31.0509 77.2421 31.2049 76.9935 31.3896C76.8728 31.4762 76.7522 31.5627 76.6358 31.6684C76.5193 31.774 76.4029 31.8796 76.2864 31.9853Z" fill="#700000"/>
</g>
<g filter="url(#filter6_f_9_3)">
<path d="M75.4087 34.4071C75.7582 33.27 76.6408 32.2458 77.8092 31.6186C78.9778 30.9915 80.4134 30.7657 81.8158 31.0273C82.5134 31.1639 83.2053 31.4117 83.8462 31.7909C84.4871 32.17 85.0726 32.6612 85.5609 33.254C86.0491 33.8466 86.4284 34.5334 86.686 35.2568C86.9436 35.9802 87.0566 36.7256 87.0851 37.4493L84.2101 35.6014C84.3845 35.5331 84.5515 35.4764 84.7259 35.408C84.9003 35.3396 85.0789 35.2903 85.2574 35.241C85.436 35.1917 85.6188 35.1614 85.8089 35.1197C85.9992 35.0779 86.1861 35.0667 86.3688 35.0365C87.1314 34.9687 87.9114 35.0272 88.6521 35.2243C89.3928 35.4214 90.0939 35.7573 90.7051 36.1829C91.3163 36.6086 91.8301 37.1357 92.2455 37.7144C93.0688 38.8835 93.4649 40.2866 93.3861 41.6141C93.3074 42.9417 92.7495 44.1746 91.8667 44.9689C91.8863 44.3744 91.8763 43.8266 91.7943 43.3146C91.7124 42.8024 91.5702 42.3337 91.375 41.8965C91.0005 41.0488 90.4418 40.3615 89.8107 39.8903C89.1796 39.419 88.4909 39.1404 87.8291 39.076C87.1673 39.0116 86.5239 39.1231 85.8304 39.4157L83.0713 40.5627L82.9669 37.5752C82.9343 36.8323 82.7735 36.1875 82.4382 35.6111C82.1031 35.0347 81.5819 34.5193 80.8724 34.1454C80.1745 33.7788 79.3263 33.5453 78.3949 33.5701C77.9292 33.5825 77.4454 33.649 76.9362 33.781C76.4385 33.9205 75.9342 34.1215 75.4087 34.4071Z" fill="#FF9797"/>
</g>
<g filter="url(#filter7_f_9_3)">
<path d="M80.1364 49.5216C80.4712 49.4579 80.8178 49.4017 81.1568 49.3571C81.3206 49.331 81.4958 49.3125 81.6596 49.2865C81.8233 49.2604 81.9945 49.2228 82.1582 49.1968L83.167 49.0249C83.4978 48.9421 83.8327 48.8784 84.1676 48.8148C85.4988 48.5219 86.7985 48.1759 88.0616 47.7081C89.3132 47.2327 90.528 46.6354 91.5978 45.8299L91.9893 45.5238C92.1248 45.4139 92.2297 45.3009 92.3651 45.1911L92.5567 45.0189C92.6245 44.964 92.669 44.8941 92.7367 44.8393L93.0853 44.4726C93.5228 43.9662 93.9056 43.3919 94.2113 42.7845C94.0404 43.4623 93.7198 44.093 93.3411 44.6863L93.0242 45.106C92.9681 45.1684 92.9161 45.2498 92.86 45.3123L92.6841 45.5109C92.5645 45.6473 92.4522 45.772 92.3208 45.901L91.9302 46.2569C90.8664 47.181 89.6112 47.8673 88.3026 48.3552C86.994 48.8431 85.6289 49.1634 84.2537 49.346C83.9146 49.3905 83.5756 49.435 83.2249 49.4722L82.1911 49.5296C82.0231 49.5365 81.8478 49.5551 81.6683 49.5546C81.4888 49.5541 81.3209 49.561 81.1489 49.5488C80.8279 49.5394 80.4805 49.5458 80.1364 49.5216Z" fill="white"/>
</g>
</g>
<g style="mix-blend-mode:soft-light">
<path d="M86.5458 35.2C95.3858 31.415 102.434 49.9077 77.332 49.639C66.5887 26.8682 86.2737 25.5583 86.5458 35.2Z" fill="url(#paint6_linear_9_3)"/>
</g>
<g style="mix-blend-mode:soft-light">
<path d="M86.5458 35.2C86.2737 25.5583 66.5887 26.8682 77.332 49.639C102.434 49.9077 95.3858 31.415 86.5458 35.2Z" fill="url(#paint7_linear_9_3)"/>
</g>
<mask id="mask2_9_3" style="mask-type:alpha" maskUnits="userSpaceOnUse" x="74" y="29" width="21" height="21">
<path d="M86.5407 35.1966C95.3808 31.4117 102.429 49.9044 77.3269 49.6357C66.5952 26.8724 86.2686 25.555 86.5407 35.1966Z" fill="url(#paint8_linear_9_3)"/>
</mask>
<g mask="url(#mask2_9_3)">
<g filter="url(#filter8_f_9_3)">
<path d="M84.7316 31.0477C85.0266 31.3029 85.2877 31.5856 85.5264 31.9031C85.7536 32.2132 85.9584 32.5581 86.118 32.9232C86.2848 33.2765 86.3987 33.6616 86.4821 34.0432C86.5655 34.425 86.6109 34.815 86.6181 35.2135L86.5254 35.1539C86.8816 35.0056 87.2537 34.8837 87.6414 34.7884C88.0218 34.7048 88.418 34.6475 88.8075 34.6519C89.2045 34.6445 89.5909 34.6795 89.9782 34.7645C90.3653 34.8493 90.7304 34.969 91.0846 35.1311C90.3538 34.8418 89.5802 34.7219 88.8094 34.7515C88.4238 34.7662 88.0468 34.8193 87.6664 34.9029C87.2977 34.9941 86.9256 35.1159 86.5695 35.2643L86.4785 35.3043L86.4882 35.2121C86.4736 34.8253 86.4399 34.4427 86.3565 34.0609C86.2847 33.6866 86.1632 33.3133 86.0154 32.9557C85.7313 32.2481 85.2877 31.5856 84.7316 31.0477Z" fill="#820010"/>
</g>
<g filter="url(#filter9_f_9_3)">
<path d="M84.7316 31.0477C85.0266 31.3029 85.2877 31.5856 85.5264 31.9031C85.7536 32.2132 85.9584 32.5581 86.118 32.9232C86.2848 33.2765 86.3987 33.6616 86.4821 34.0432C86.5655 34.425 86.6109 34.815 86.6181 35.2135L86.5254 35.1539C86.8816 35.0056 87.2537 34.8837 87.6414 34.7884C88.0218 34.7048 88.418 34.6475 88.8075 34.6519C89.2045 34.6445 89.5909 34.6795 89.9782 34.7645C90.3653 34.8493 90.7304 34.969 91.0846 35.1311C90.3538 34.8418 89.5802 34.7219 88.8094 34.7515C88.4238 34.7662 88.0468 34.8193 87.6664 34.9029C87.2977 34.9941 86.9256 35.1159 86.5695 35.2643L86.4785 35.3043L86.4882 35.2121C86.4736 34.8253 86.4399 34.4427 86.3565 34.0609C86.2847 33.6866 86.1632 33.3133 86.0154 32.9557C85.7313 32.2481 85.2877 31.5856 84.7316 31.0477Z" fill="#820010"/>
</g>
<g filter="url(#filter10_f_9_3)">
<path d="M84.7316 31.0477C85.0266 31.3029 85.2877 31.5856 85.5264 31.9031C85.7536 32.2132 85.9584 32.5581 86.118 32.9232C86.2848 33.2765 86.3987 33.6616 86.4821 34.0432C86.5655 34.425 86.6109 34.815 86.6181 35.2135L86.5254 35.1539C86.8816 35.0056 87.2537 34.8837 87.6414 34.7884C88.0218 34.7048 88.418 34.6475 88.8075 34.6519C89.2045 34.6445 89.5909 34.6795 89.9782 34.7645C90.3653 34.8493 90.7304 34.969 91.0846 35.1311C90.3538 34.8418 89.5802 34.7219 88.8094 34.7515C88.4238 34.7662 88.0468 34.8193 87.6664 34.9029C87.2977 34.9941 86.9256 35.1159 86.5695 35.2643L86.4785 35.3043L86.4882 35.2121C86.4736 34.8253 86.4399 34.4427 86.3565 34.0609C86.2847 33.6866 86.1632 33.3133 86.0154 32.9557C85.7313 32.2481 85.2877 31.5856 84.7316 31.0477Z" fill="#820010"/>
</g>
</g>
<path d="M31.8017 50.443C30.0141 49.0127 32.1767 47.8962 33.6643 48.1094C35.2269 48.3353 36.8145 48.5109 38.3896 48.3604C39.1146 48.2976 39.8397 48.1596 40.5397 47.9463C41.1898 47.7456 41.8273 47.2939 42.4898 47.1685C43.5024 46.9803 43.4274 48.1471 43.1274 48.7618C42.6648 49.7153 41.8148 50.4555 40.8647 50.9197C38.2021 52.2496 34.3143 52.3751 31.8517 50.4806C31.8392 50.4806 31.8142 50.4555 31.8017 50.443Z" fill="#42210B"/>
<path d="M50.6528 48.4233C49.1027 47.3318 50.5403 46.0395 51.6779 46.0521C52.8779 46.0646 54.0905 46.0144 55.2406 45.6883C55.7781 45.5377 56.2906 45.3244 56.7782 45.0359C57.2282 44.7724 57.6407 44.2706 58.1157 44.0824C58.8408 43.7813 58.9658 44.8477 58.8408 45.4624C58.6408 46.4034 58.1282 47.1687 57.4907 47.7332C55.7156 49.2889 52.8404 49.9037 50.7028 48.4735C50.6778 48.4484 50.6653 48.4358 50.6528 48.4233Z" fill="#42210B"/>
<path d="M44.0167 61.1141C44.0292 61.1136 43.9917 61.1149 43.9787 61.1028C43.9538 61.1036 43.9283 61.0919 43.8909 61.0932C43.8279 61.0827 43.765 61.0723 43.7026 61.0744C43.5768 61.0536 43.439 61.0457 43.3011 61.0378C43.0254 61.022 42.7497 61.0062 42.4748 61.0154C41.9122 61.0218 41.3379 61.0538 40.7773 61.123L40.5658 61.1552L40.3543 61.1875C40.2177 61.2172 40.0682 61.2348 39.9312 61.2519C39.6455 61.3118 39.3594 61.3591 39.0871 61.4436L38.6652 61.5458L38.2442 61.6729C38.1081 61.7151 37.9594 61.7578 37.8232 61.8001L37.4155 61.9519C36.3158 62.3531 35.2578 62.8784 34.2535 63.5149C33.2491 64.1513 32.2981 64.8864 31.4125 65.707C30.527 66.5278 29.7198 67.4463 28.9388 68.4016L28.3884 69.1482L28.1132 69.5216L27.8509 69.907L27.3264 70.6778C27.1599 70.9345 27.0064 71.2034 26.8403 71.4726L26.6035 71.8697L26.4852 72.0746L26.3795 72.279L25.9321 73.11L25.7081 73.5193L25.4971 73.9407L25.0875 74.783C25.0172 74.9234 24.9469 75.0639 24.889 75.2039L24.7034 75.637L24.3322 76.5032L23.9497 77.4074C23.8223 77.7129 23.6826 78.0189 23.5302 78.3254C23.2505 78.9373 22.92 79.5259 22.5895 80.1145C22.2336 80.6914 21.8652 81.2688 21.4452 81.7976C21.0255 82.3389 20.5676 82.8566 20.0326 83.314C19.5104 83.7835 18.9363 84.192 18.2968 84.5149C17.6571 84.8377 16.9642 85.0619 16.2421 85.1617C16.068 85.1926 15.8802 85.1864 15.7057 85.2048C15.5308 85.2108 15.3426 85.192 15.1677 85.1979C14.9919 85.1787 14.8037 85.16 14.6274 85.1283C14.4513 85.0965 14.2751 85.0648 14.0981 85.0081C13.4038 84.8181 12.7557 84.5136 12.1921 84.1183C11.616 83.7235 11.112 83.2385 10.6816 82.7132C9.80798 81.6505 9.22748 80.3772 8.98304 79.0548C8.73819 77.7199 8.89103 76.3088 9.4633 75.0969C9.75548 74.4845 10.1376 73.9444 10.5968 73.4644C11.0561 72.9845 11.5807 72.5902 12.1445 72.2448C12.7087 71.9119 13.3003 71.6534 13.9187 71.4443L14.3764 71.2907C14.5375 71.2477 14.6863 71.205 14.8474 71.1619L15.0831 71.1037L15.3192 71.0581L15.791 70.9542L15.3201 71.0832L15.0848 71.1538L14.8619 71.2241C14.7138 71.2793 14.5525 71.3225 14.4044 71.3777L13.96 71.5558C13.3678 71.8018 12.8024 72.097 12.2765 72.4537C11.7507 72.8104 11.2768 73.2281 10.8676 73.7064C10.4584 74.1847 10.1262 74.723 9.89522 75.2958C9.43372 76.4536 9.38912 77.7356 9.67891 78.9184C9.96911 80.1137 10.5692 81.2232 11.3994 82.1115C11.8143 82.5495 12.2776 82.9355 12.7758 83.245C13.2739 83.5546 13.8312 83.7618 14.3855 83.8811C15.5071 84.132 16.6619 83.8796 17.643 83.2942C18.1334 83.0015 18.5839 82.6348 19.0078 82.2187C19.4316 81.8027 19.8033 81.3257 20.1372 80.8374C20.4835 80.3488 20.7783 79.8115 21.0729 79.2745C21.2012 78.9939 21.3547 78.7251 21.4704 78.445C21.5986 78.1645 21.7268 77.8841 21.8296 77.5919C21.9448 77.2992 22.0606 77.0192 22.1634 76.727L22.4834 75.8249L22.8149 74.8974L22.9868 74.4271C23.0443 74.2745 23.1142 74.1216 23.1715 73.9689L23.5537 73.0523L23.7384 72.5941L23.9486 72.1476L24.3685 71.2422L24.4734 71.0127L24.5913 70.7953L24.8264 70.348C24.9791 70.0542 25.1319 69.7602 25.2972 69.466L25.8058 68.5952L26.0663 68.1596L26.3399 67.7362L26.8993 66.8887C27.6882 65.7951 28.515 64.7127 29.47 63.7265C30.4251 62.7403 31.4572 61.8141 32.581 61.0104C33.7044 60.1942 34.919 59.488 36.2136 58.9296L36.6946 58.7251C36.8549 58.6568 37.0281 58.6009 37.1884 58.5326C37.3491 58.477 37.5219 58.4084 37.6827 58.3527L38.1899 58.185C38.5238 58.0733 38.8711 57.9862 39.206 57.8997C39.3796 57.8561 39.5536 57.8251 39.7273 57.7816L39.988 57.7226L40.2492 57.6761C40.945 57.5397 41.655 57.4529 42.3788 57.4033C42.7407 57.3786 43.103 57.3665 43.4783 57.3663C43.6661 57.3725 43.8535 57.3662 44.0418 57.3849C44.1422 57.3941 44.2295 57.3912 44.3299 57.4003C44.3803 57.4111 44.4303 57.4095 44.4807 57.4203C44.5436 57.4308 44.5811 57.4294 44.6814 57.4387C45.7006 57.6176 46.3834 58.5863 46.205 59.6092C46.0134 60.6073 45.0357 61.2931 44.0167 61.1141Z" fill="black"/>
<path d="M50.2567 56.2209C50.3308 56.1933 50.3555 56.1799 50.405 56.1657L50.5161 56.1243C50.5902 56.0967 50.6649 56.0817 50.7265 56.0544C50.8626 56.0122 50.9993 55.9824 51.1479 55.9398C51.4207 55.8678 51.6938 55.8084 51.9549 55.7619C52.4892 55.656 53.0248 55.5877 53.5612 55.5444C54.634 55.4581 55.6972 55.4599 56.7641 55.5744C58.8727 55.792 60.9311 56.3754 62.8 57.2788C63.2699 57.4889 63.7289 57.7496 64.1749 57.9982C64.6219 58.2718 65.068 58.5203 65.4783 58.8203C65.9128 59.0943 66.3109 59.4073 66.7217 59.7199C66.8242 59.7916 66.9271 59.8761 67.0175 59.9609L67.3132 60.202L67.609 60.443C67.7119 60.5274 67.8019 60.5997 67.8926 60.6971L68.4476 61.2056C68.5379 61.2904 68.6408 61.3748 68.7187 61.4601L68.9778 61.7275L69.5086 62.2619C69.6772 62.4445 69.8464 62.6397 70.0151 62.8222C70.1839 63.0049 70.3525 63.1874 70.5093 63.383L70.9787 63.9571L71.4482 64.5314C71.5916 64.7022 71.7358 64.8982 71.8786 65.0565C72.022 65.2274 72.1778 65.3979 72.3335 65.5684C72.4114 65.6537 72.4894 65.7389 72.5668 65.8117L72.8122 66.0419L72.9288 66.1635L73.0576 66.2721L73.303 66.5023L73.5604 66.7195L73.6891 66.8282L73.8174 66.9243C74.1765 67.1883 74.5472 67.4268 74.9292 67.6275C75.3111 67.8279 75.7167 67.9899 76.1208 68.1018C76.9408 68.3127 77.8041 68.3212 78.5954 68.0435C78.9909 67.9046 79.372 67.7034 79.7139 67.4533C80.0552 67.1907 80.3575 66.8793 80.621 66.5314C81.1351 65.8237 81.4435 64.9471 81.4391 64.0685C81.4471 63.1896 81.1046 62.2973 80.4696 61.6409C79.8469 60.9714 78.9697 60.5492 78.0488 60.3167C77.5943 60.1939 77.1167 60.1222 76.6398 60.0755C76.1629 60.0289 75.6874 60.0197 75.1997 60.0237C75.6736 59.9826 76.16 59.941 76.6485 59.9623C77.1366 59.9709 77.6256 60.0045 78.1036 60.0888C78.5818 60.1731 79.0616 60.3075 79.5185 60.5055C79.9754 60.7036 80.4094 60.9651 80.796 61.3035C81.1701 61.6424 81.5092 62.0577 81.7376 62.527C81.966 62.9964 82.1081 63.5062 82.1507 64.032C82.236 65.0835 81.959 66.1474 81.4137 67.0444C81.1411 67.4931 80.7922 67.9065 80.3916 68.2716C79.9906 68.624 79.5256 68.9285 79.0326 69.1459C78.0344 69.5938 76.8863 69.6703 75.8292 69.48C75.3007 69.3849 74.7826 69.2266 74.3003 69.0169C73.818 68.8073 73.3473 68.572 72.8999 68.2859L72.7337 68.1785L72.5676 68.0712L72.2477 67.856L71.9398 67.6278L71.7856 67.5075L71.6315 67.3872L71.3357 67.1462C71.2328 67.0618 71.1425 66.9769 71.0521 66.8921C70.8588 66.7229 70.6776 66.5407 70.4968 66.3711C70.3155 66.1889 70.1469 66.0063 69.9656 65.8241L69.4732 65.3135L68.9937 64.815C68.8255 64.6449 68.6579 64.5 68.4897 64.3299C68.3218 64.1724 68.1535 64.0023 67.986 63.8573L67.4582 63.4106L67.2004 63.1809C67.1105 63.1085 67.0205 63.0363 66.9305 62.964L66.3911 62.5428C66.3011 62.4706 66.211 62.3983 66.109 62.339L65.8274 62.1476L65.5459 61.9563C65.4559 61.884 65.3539 61.8247 65.2642 61.765L64.6891 61.3953C64.4971 61.2636 64.2938 61.1701 64.1022 61.051C63.7194 60.8254 63.2999 60.6262 62.9055 60.4261C62.4993 60.2514 62.0924 60.0518 61.6747 59.9028C60.0149 59.2683 58.2648 58.9257 56.5377 58.8961C55.674 58.875 54.8132 58.9418 53.9674 59.0833C53.5448 59.1603 53.1345 59.237 52.7256 59.3511C52.5274 59.4081 52.3292 59.4649 52.1438 59.5341C52.0572 59.562 51.9586 59.6031 51.8719 59.631C51.8224 59.6452 51.7853 59.659 51.7487 59.6854C51.7242 59.6988 51.7117 59.6992 51.6996 59.7122C51.6871 59.7126 51.6626 59.726 51.6751 59.7255C50.7126 60.1221 49.6218 59.6693 49.2268 58.7035C48.8433 57.7123 49.3069 56.617 50.2567 56.2209Z" fill="black"/>
<g filter="url(#filter11_f_9_3)">
<path d="M60.5257 67.5077C61.2916 70.0984 59.8198 72.8216 57.2385 73.5903C54.6572 74.359 51.9437 72.8818 51.1779 70.2912C50.412 67.7006 51.8837 64.9772 54.4651 64.2087C57.0464 63.44 59.7598 64.917 60.5257 67.5077Z" fill="#E66200"/>
</g>
<path d="M55.0092 64.8792C54.9832 64.8423 54.9699 64.8176 54.9568 64.7929L54.9047 64.719C54.8787 64.6821 54.8529 64.6578 54.8397 64.6331L54.8269 64.6208C54.8137 64.596 54.7883 64.5843 54.7752 64.5595C54.6078 64.3885 54.4293 64.2681 54.3015 64.1714C53.9702 63.9548 53.6409 63.8009 53.3873 63.6826C52.8431 63.447 52.2623 63.25 51.5569 63.0692C51.2545 62.9899 50.9396 62.911 50.6254 62.857L50.5248 62.8348C50.3992 62.8133 50.2859 62.7914 50.1603 62.7699C50.0093 62.7365 49.8461 62.7159 49.6955 62.6951C49.3313 62.6426 49.03 62.601 48.7541 62.5711C48.503 62.5406 48.3153 62.5334 48.1271 62.5135C48.0019 62.5046 47.8794 62.596 47.845 62.7099C47.811 62.8363 47.877 62.9599 47.9909 63.007C48.1684 63.0898 48.3583 63.1722 48.5357 63.2551C48.7887 63.3609 49.0293 63.467 49.2825 63.5728L51.0416 64.3138C51.5859 64.5494 52.1178 64.7854 52.625 65.0345C52.8028 65.1299 53.0819 65.2726 53.2865 65.43C53.3503 65.4784 53.4013 65.5147 53.4527 65.5633L53.4656 65.5755L53.4535 65.5884C53.4173 65.6397 53.3816 65.7035 53.321 65.768C53.2002 65.9219 53.0177 66.1028 52.7863 66.3227C52.3595 66.7113 51.8949 67.0884 51.4545 67.4398L49.851 68.6775C49.7532 68.7557 49.7067 68.8824 49.7227 69.0075C49.7387 69.1325 49.8169 69.2433 49.9308 69.2902C50.0446 69.3373 50.146 69.3846 50.2599 69.4315L51.8545 70.1018C52.3353 70.3016 52.8039 70.5142 53.2352 70.728C53.489 70.8589 53.6671 70.9668 53.8077 71.0758C53.8587 71.1119 53.9097 71.1482 53.9484 71.1847C53.9244 71.2231 53.8884 71.2743 53.8397 71.3258C53.7307 71.4544 53.5851 71.6092 53.378 71.8033C53.0122 72.1399 52.5962 72.4655 52.2048 72.7779L50.8831 73.8068C50.6996 73.9501 50.5159 74.0933 50.3324 74.2365C50.1978 74.3407 50.0635 74.4575 49.9289 74.5617C49.831 74.6398 49.8095 74.7659 49.8626 74.8773C49.9155 74.9763 50.0169 75.0236 50.1164 75.0082C50.1289 75.0079 50.1539 75.0072 50.166 74.9943C50.3272 74.9396 50.4882 74.8847 50.6734 74.8042C50.9084 74.7097 51.1558 74.6149 51.4397 74.4813C51.7236 74.3478 51.9708 74.2404 52.1925 74.1212C52.4268 74.0015 52.6609 73.8819 52.9317 73.7237C53.4855 73.4068 53.9397 73.1052 54.3433 72.78C54.5269 72.6367 54.7712 72.4291 55.0137 72.1586C55.1472 72.0169 55.2433 71.8761 55.3266 71.723C55.3383 71.6977 55.3502 71.6722 55.3745 71.6464C55.3862 71.621 55.398 71.5956 55.4098 71.5701L55.4452 71.4938C55.457 71.4683 55.4685 71.4303 55.4802 71.405C55.526 71.2531 55.5342 71.1022 55.5175 70.9521C55.5008 70.8019 55.447 70.6654 55.3677 70.517C55.3545 70.4923 55.3413 70.4675 55.3156 70.4432L55.2638 70.3819C55.2507 70.3571 55.2249 70.3328 55.1993 70.3083L55.1864 70.2962C55.1736 70.284 55.1604 70.2593 55.1476 70.2471C55.0316 70.1249 54.9034 70.0155 54.7253 69.9076C54.4323 69.7152 54.141 69.5853 53.9254 69.4784C53.4446 69.2787 52.9394 69.1047 52.3223 68.9465C52.108 68.8898 51.9066 68.8452 51.7054 68.8008C51.8904 68.7077 52.0749 68.6021 52.2716 68.4835C52.8991 68.1143 53.4147 67.7734 53.8797 67.4088C54.0876 67.2397 54.3686 67.0059 54.6352 66.6971C54.7804 66.5299 54.8887 66.3762 54.9841 66.2103C54.9959 66.1849 55.0081 66.1721 55.0198 66.1466L55.0316 66.1211C55.0434 66.0957 55.0548 66.0578 55.0667 66.0323L55.1017 65.9435C55.1131 65.9055 55.1249 65.88 55.1363 65.8421C55.1813 65.6651 55.2018 65.5014 55.1722 65.339C55.1558 65.2014 55.1013 65.0398 55.0092 64.8792Z" stroke="url(#paint9_linear_9_3)" stroke-width="4.2289" stroke-miterlimit="10"/>
<path d="M55.0092 64.8792C54.9832 64.8423 54.9699 64.8176 54.9568 64.7929L54.9047 64.719C54.8787 64.6821 54.8529 64.6578 54.8397 64.6331L54.8269 64.6208C54.8137 64.596 54.7883 64.5843 54.7752 64.5595C54.6078 64.3885 54.4293 64.2681 54.3015 64.1714C53.9702 63.9548 53.6409 63.8009 53.3873 63.6826C52.8431 63.447 52.2623 63.25 51.5569 63.0692C51.2545 62.9899 50.9396 62.911 50.6254 62.857L50.5248 62.8348C50.3992 62.8133 50.2859 62.7914 50.1603 62.7699C50.0093 62.7365 49.8461 62.7159 49.6955 62.6951C49.3313 62.6426 49.03 62.601 48.7541 62.5711C48.503 62.5406 48.3153 62.5334 48.1271 62.5135C48.0019 62.5046 47.8794 62.596 47.845 62.7099C47.811 62.8363 47.877 62.9599 47.9909 63.007C48.1684 63.0898 48.3583 63.1722 48.5357 63.2551C48.7887 63.3609 49.0293 63.467 49.2825 63.5728L51.0416 64.3138C51.5859 64.5494 52.1178 64.7854 52.625 65.0345C52.8028 65.1299 53.0819 65.2726 53.2865 65.43C53.3503 65.4784 53.4013 65.5147 53.4527 65.5633L53.4656 65.5755L53.4535 65.5884C53.4173 65.6397 53.3816 65.7035 53.321 65.768C53.2002 65.9219 53.0177 66.1028 52.7863 66.3227C52.3595 66.7113 51.8949 67.0884 51.4545 67.4398L49.851 68.6775C49.7532 68.7557 49.7067 68.8824 49.7227 69.0075C49.7387 69.1325 49.8169 69.2433 49.9308 69.2902C50.0446 69.3373 50.146 69.3846 50.2599 69.4315L51.8545 70.1018C52.3353 70.3016 52.8039 70.5142 53.2352 70.728C53.489 70.8589 53.6671 70.9668 53.8077 71.0758C53.8587 71.1119 53.9097 71.1482 53.9484 71.1847C53.9244 71.2231 53.8884 71.2743 53.8397 71.3258C53.7307 71.4544 53.5851 71.6092 53.378 71.8033C53.0122 72.1399 52.5962 72.4655 52.2048 72.7779L50.8831 73.8068C50.6996 73.9501 50.5159 74.0933 50.3324 74.2365C50.1978 74.3407 50.0635 74.4575 49.9289 74.5617C49.831 74.6398 49.8095 74.7659 49.8626 74.8773C49.9155 74.9763 50.0169 75.0236 50.1164 75.0082C50.1289 75.0079 50.1539 75.0072 50.166 74.9943C50.3272 74.9396 50.4882 74.8847 50.6734 74.8042C50.9084 74.7097 51.1558 74.6149 51.4397 74.4813C51.7236 74.3478 51.9708 74.2404 52.1925 74.1212C52.4268 74.0015 52.6609 73.8819 52.9317 73.7237C53.4855 73.4068 53.9397 73.1052 54.3433 72.78C54.5269 72.6367 54.7712 72.4291 55.0137 72.1586C55.1472 72.0169 55.2433 71.8761 55.3266 71.723C55.3383 71.6977 55.3502 71.6722 55.3745 71.6464C55.3862 71.621 55.398 71.5956 55.4098 71.5701L55.4452 71.4938C55.457 71.4683 55.4685 71.4303 55.4802 71.405C55.526 71.2531 55.5342 71.1021 55.5175 70.9521C55.5008 70.8019 55.447 70.6654 55.3677 70.517C55.3545 70.4923 55.3413 70.4675 55.3156 70.4432L55.2638 70.3819C55.2507 70.3571 55.2249 70.3328 55.1993 70.3083L55.1864 70.2962C55.1736 70.284 55.1604 70.2593 55.1476 70.2471C55.0316 70.1249 54.9034 70.0155 54.7253 69.9076C54.4323 69.7152 54.141 69.5853 53.9254 69.4784C53.4446 69.2787 52.9394 69.1047 52.3223 68.9465C52.108 68.8898 51.9066 68.8452 51.7054 68.8008C51.8904 68.7077 52.0749 68.6021 52.2716 68.4835C52.8991 68.1143 53.4147 67.7734 53.8797 67.4088C54.0876 67.2397 54.3686 67.0059 54.6352 66.6971C54.7804 66.5299 54.8887 66.3762 54.9841 66.2103C54.9959 66.1849 55.0081 66.1721 55.0198 66.1466L55.0316 66.1211C55.0434 66.0957 55.0548 66.0578 55.0667 66.0323L55.1017 65.9435C55.1131 65.9055 55.1249 65.88 55.1363 65.8421C55.1813 65.6651 55.2018 65.5014 55.1722 65.339C55.1558 65.2014 55.1013 65.0398 55.0092 64.8792Z" fill="url(#paint10_radial_9_3)"/>
<mask id="mask3_9_3" style="mask-type:alpha" maskUnits="userSpaceOnUse" x="8" y="22" width="61" height="62">
<path d="M45.9464 82.0423C62.0367 77.7426 71.6074 61.1659 67.323 45.0172C63.0386 28.8687 46.5217 19.2634 30.4313 23.5632C14.3409 27.8631 4.77024 44.4398 9.05461 60.5884C13.3389 76.737 29.8559 86.3422 45.9464 82.0423Z" fill="url(#paint11_radial_9_3)"/>
</mask>
<g mask="url(#mask3_9_3)">
<g filter="url(#filter12_f_9_3)">
<path d="M68.004 45.9357C62.9892 42.1319 55.1384 40.1135 46.2046 40.4499C42.582 40.5793 38.7919 41.0968 34.9374 42.0413C21.9557 45.1982 11.7456 52.2883 7.67193 60.0124C7.47856 58.6021 7.37543 57.1659 7.37543 55.7169C7.37543 54.5783 7.43988 53.4398 7.55591 52.3271C7.81374 49.9206 8.34229 47.5917 9.12867 45.3663C9.64433 43.8785 10.276 42.4424 11.0108 41.058C11.4878 40.1653 12.0035 39.2985 12.5579 38.4574C12.648 38.3799 12.7382 38.3022 12.8414 38.2245C13.125 37.9917 13.4215 37.7588 13.7181 37.5388C13.8212 37.4612 13.9243 37.3836 14.0146 37.3059C14.1177 37.2283 14.2208 37.1507 14.324 37.086C14.4142 37.0213 14.5044 36.9566 14.6075 36.8919C15.6518 36.1415 16.7734 35.4299 17.9336 34.7442C22.5873 32.0401 28.208 29.9053 34.3959 28.6762C34.5636 28.6503 34.7183 28.6116 34.8858 28.5856C41.3573 27.3566 47.6097 27.2789 53.1015 28.1716C53.6687 28.4692 54.2231 28.7926 54.7774 29.1291C56.0923 29.9442 57.3428 30.8498 58.516 31.8461C59.5859 32.7517 60.6044 33.735 61.5454 34.7831C64.4073 37.9658 66.6376 41.7566 68.004 45.9357Z" fill="#933100" fill-opacity="0.4"/>
</g>
</g>
<mask id="mask4_9_3" style="mask-type:alpha" maskUnits="userSpaceOnUse" x="8" y="22" width="61" height="62">
<path d="M45.9464 82.0423C62.0367 77.7426 71.6074 61.1659 67.323 45.0172C63.0386 28.8687 46.5217 19.2634 30.4313 23.5632C14.3409 27.8631 4.77024 44.4398 9.05461 60.5884C13.3389 76.737 29.8559 86.3422 45.9464 82.0423Z" fill="url(#paint12_radial_9_3)"/>
</mask>
<g mask="url(#mask4_9_3)">
<path d="M69.6447 46.1286C64.5412 42.1246 56.4841 39.9275 47.2743 40.1096C43.5437 40.1875 39.6317 40.6556 35.6421 41.5525C22.2094 44.5946 11.5616 51.7318 7.23522 59.6229C7.05387 58.1668 6.97614 56.6848 7.00205 55.1898C7.015 54.0068 7.10567 52.8497 7.24817 51.7058C7.55905 49.2227 8.14194 46.8307 8.98392 44.5686C9.54092 43.0476 10.2145 41.5786 10.9917 40.1615C11.4969 39.2515 12.0409 38.3674 12.6238 37.5094C12.7145 37.4315 12.8181 37.3535 12.9088 37.2754C13.2067 37.0414 13.5176 36.8075 13.8285 36.5735C13.9322 36.4954 14.0358 36.4174 14.1394 36.3394C14.243 36.2615 14.3467 36.1834 14.4632 36.1184C14.5539 36.0535 14.6576 35.9885 14.7482 35.9104C15.8363 35.1564 17.0021 34.4414 18.2197 33.7524C23.0643 31.0484 28.8804 28.9423 35.2793 27.7722C35.4477 27.7463 35.6162 27.7073 35.7846 27.6813C42.4815 26.5242 48.9192 26.5503 54.5541 27.5513C55.137 27.8762 55.7069 28.2142 56.2639 28.5783C57.611 29.4363 58.8805 30.3984 60.0722 31.4383C61.1602 32.3874 62.1965 33.4273 63.1421 34.5193C66.0696 37.8604 68.2976 41.7995 69.6447 46.1286Z" fill="url(#paint13_linear_9_3)"/>
</g>
<path d="M70.9274 30.2892C68.8841 32.7856 65.2416 33.7664 61.1424 33.9192C60.2158 32.8876 59.2133 31.9195 58.16 31.0279C57.005 30.0472 55.774 29.1555 54.4794 28.3531C53.9463 28.0219 53.3879 27.7035 52.8295 27.4105C47.4231 26.5317 41.2805 26.6081 34.8967 27.8181C34.7318 27.8436 34.5794 27.8818 34.4144 27.9073C28.3227 29.1173 22.802 31.219 18.2077 33.881C17.0528 34.5561 15.9613 35.2566 14.9334 35.9953C14.8445 36.0591 14.743 36.1228 14.6541 36.1864C14.5526 36.2628 14.4511 36.3266 14.3496 36.403C14.248 36.4794 14.1465 36.5559 14.0577 36.6323C13.7657 36.8615 13.4738 37.0781 13.1947 37.3073C13.1058 37.3838 13.017 37.4602 12.9154 37.5366C12.3697 38.3645 11.8621 39.2179 11.3925 40.0967C10.6691 41.4469 10.0472 42.8735 9.53956 44.3383C8.77808 46.5164 8.25773 48.809 7.99122 51.1909C6.18906 50.2102 4.75494 49.2039 3.62541 48.2103C-5.09351 40.4789 4.65341 32.7474 4.65341 32.7474C4.43766 32.3398 4.25998 31.945 4.12037 31.5629C1.68364 24.774 11.1894 22.2392 11.8748 22.0609C11.8748 22.0609 11.8748 22.0609 11.8748 22.0737C11.8748 22.0737 11.8748 22.0864 11.8748 22.0991C11.8494 22.5704 11.7352 27.5124 22.3958 23.8059C33.2089 20.0484 32.7773 18.3034 32.7392 18.1888C32.7392 18.1888 55.4567 12.3297 56.8019 21.6788C56.8146 21.5259 56.8273 21.3731 56.84 21.233C56.7511 20.4433 56.6243 19.4243 56.4846 18.2652C56.2055 17.4118 55.774 16.6221 55.152 15.8834C54.9109 15.6031 54.6698 15.3357 54.416 15.0682C58.6168 14.4186 66.8281 13.9473 68.0844 19.8956C71.3589 21.5642 75.3313 24.9013 70.9274 30.2892Z" fill="url(#paint14_linear_9_3)"/>
<path d="M18.2204 33.8938C16.2786 35.0148 14.5019 36.2502 12.9282 37.5494C12.3824 38.3774 11.8747 39.2307 11.4052 40.1096C10.1233 39.2181 8.79075 38.0716 7.47086 36.5942C6.79822 35.8427 6.12558 34.9892 5.46563 34.0467C5.16104 33.6009 4.89452 33.1679 4.67877 32.7475C4.64069 32.6584 4.58993 32.5819 4.55186 32.4928C4.51379 32.4291 4.48841 32.3653 4.46302 32.3017C4.37418 32.0978 4.28535 31.9069 4.20919 31.7158C4.18382 31.6649 4.17112 31.614 4.15843 31.5757C3.9173 30.9134 3.80307 30.302 3.765 29.716C3.48579 24.3155 11.2909 22.2266 11.9001 22.0737C11.7098 23.3729 11.8621 24.9014 12.6235 26.6718C13.0297 27.6144 13.6007 28.6206 14.3749 29.7033C15.5806 31.3846 16.8878 32.7603 18.2204 33.8938Z" fill="url(#paint15_linear_9_3)"/>
<path d="M58.1599 31.0279C57.0051 30.0472 55.774 29.1556 54.4794 28.3531C56.1801 25.2453 57.0938 22.3157 56.8147 19.7555C56.6624 18.329 56.1294 17.0298 55.1648 15.8707C54.9237 15.5904 54.6825 15.323 54.4286 15.0555C58.6295 14.4059 66.8408 13.9346 68.0972 19.8829C68.1226 19.972 68.1353 20.0612 68.148 20.1631C68.8206 24.1244 63.7441 28.0093 58.1599 31.0279Z" fill="url(#paint16_linear_9_3)"/>
<path d="M72.5646 27.4998C72.2727 28.3658 71.7397 29.2956 70.9274 30.2891C68.8841 32.7857 65.2418 33.7664 61.1424 33.9193C60.216 32.8875 59.2133 31.9195 58.16 31.028C62.0181 28.9391 65.6224 26.4425 67.2723 23.8059C68.0084 22.6214 68.3637 21.3986 68.1481 20.1758C68.1353 20.0867 68.1099 19.9975 68.0972 19.8956C70.7625 21.2585 73.8845 23.7168 72.5646 27.4998Z" fill="url(#paint17_linear_9_3)"/>
<path d="M34.9093 27.8183C34.7444 27.8438 34.592 27.8819 34.4271 27.9074C28.3353 29.1174 22.8146 31.2191 18.2203 33.8811C16.8877 32.7603 15.5805 31.3719 14.3748 29.6906C12.1412 26.57 11.6081 24.048 11.9 22.0738C11.9 22.061 11.9 22.061 11.9 22.061C12.4965 18.0361 16.507 16.2656 16.507 16.2656C16.507 16.2656 20.9362 14.0238 26.9646 12.2279C29.7186 13.9729 31.5462 16.0618 32.7392 18.1889C34.8332 21.8827 35.0236 25.6529 34.9093 27.8183Z" fill="url(#paint18_linear_9_3)"/>
<path d="M56.8528 21.2331C56.84 21.3859 56.8274 21.526 56.8146 21.6789C56.6116 23.7423 55.7739 25.9968 54.4795 28.3532C53.9465 28.022 53.388 27.7036 52.8296 27.4107C47.4231 26.5318 41.2806 26.6082 34.8968 27.8183C35.0111 25.6528 34.8207 21.87 32.7393 18.1889C31.5462 16.0618 29.7188 13.9729 26.9647 12.2279C35.6202 9.64224 47.5501 7.96093 54.4287 15.0683C54.6825 15.323 54.9236 15.5905 55.1648 15.8835C55.7739 16.6222 56.2182 17.4119 56.4974 18.2653C56.802 19.1824 56.9035 20.1886 56.8528 21.2331Z" fill="url(#paint19_linear_9_3)"/>
<path d="M56.8528 21.2331C56.84 21.3859 56.8274 21.526 56.8146 21.6789C56.6116 23.7423 55.7739 25.9968 54.4795 28.3532C53.9465 28.022 53.388 27.7036 52.8296 27.4107C47.4231 26.5318 41.2806 26.6082 34.8968 27.8183C35.0111 25.6528 34.8207 21.87 32.7393 18.1889C31.5462 16.0618 29.7188 13.9729 26.9647 12.2279C35.6202 9.64224 47.5501 7.96093 54.4287 15.0683C54.6825 15.323 54.9236 15.5905 55.1648 15.8835C55.7739 16.6222 56.2182 17.4119 56.4974 18.2653C56.802 19.1824 56.9035 20.1886 56.8528 21.2331Z" fill="url(#paint20_linear_9_3)"/>
<path d="M22.4084 23.8059C11.7478 27.4997 11.8493 22.5705 11.8874 22.0992C11.8874 22.0864 11.8874 22.0864 11.8874 22.0737C11.8874 22.061 11.8874 22.0609 11.8874 22.0609C12.1412 20.3669 13.0042 19.0677 13.9053 18.1251C13.9434 18.0869 13.9688 18.0615 14.0068 18.0233C14.0703 17.9596 14.1464 17.8959 14.2099 17.8322C15.3648 16.7623 16.4943 16.2528 16.4943 16.2528C16.4943 16.2528 20.9236 14.011 26.9519 12.2151C29.706 13.9601 31.5335 16.049 32.7265 18.1761C32.7899 18.3035 33.2342 20.0485 22.4084 23.8059Z" fill="url(#paint21_linear_9_3)"/>
<path d="M68.1607 20.1758C65.3432 17.5265 60.254 18.5837 56.8147 19.7682C56.6624 18.3416 56.1294 17.0424 55.1648 15.8834C54.9237 15.6031 54.6825 15.3357 54.4286 15.0682C58.6295 14.4186 66.8408 13.9473 68.0972 19.8956C68.1226 19.9847 68.148 20.0866 68.1607 20.1758Z" fill="url(#paint22_linear_9_3)"/>
<path d="M56.8528 21.2331C56.8401 21.3859 56.8274 21.526 56.8147 21.6789C55.4695 12.3298 32.752 18.1889 32.752 18.1889C31.5591 16.0618 29.7315 13.9729 26.9775 12.2279C35.6203 9.64224 47.5501 7.96093 54.4288 15.0683C54.6826 15.323 54.9237 15.5905 55.1648 15.8835C55.774 16.6222 56.2183 17.4119 56.4974 18.2653C56.9317 19.5927 56.8528 20.4082 56.8528 21.2331Z" fill="url(#paint23_linear_9_3)"/>
<path d="M11.4052 40.1096C10.6818 41.4596 10.0599 42.8862 9.55226 44.351C8.79077 46.5291 8.27043 48.8217 8.00392 51.2036C6.20175 50.2228 4.76764 49.2165 3.63811 48.2231C2.03901 46.8092 1.06178 45.3827 0.52874 44.0199C-1.83185 37.9187 4.6661 32.7601 4.6661 32.7601C4.88185 33.1804 5.14837 33.6135 5.45296 34.0594C6.11292 35.0018 6.78554 35.8425 7.45818 36.6067C7.69932 36.887 7.95315 37.1545 8.20698 37.4092C9.28574 38.4919 10.3645 39.3835 11.4052 40.1096Z" fill="url(#paint24_linear_9_3)"/>
<path d="M8.21972 37.3838C7.58516 38.9123 7.09021 40.4917 6.9506 41.9692C6.43026 47.3571 0.541495 44.0072 0.541495 44.0072C-1.81909 37.9061 4.67886 32.7474 4.67886 32.7474C4.89461 33.1679 5.16113 33.6009 5.46572 34.0467C6.12566 34.9893 6.7983 35.8299 7.47094 36.5942C7.71208 36.8616 7.9659 37.1291 8.21972 37.3838Z" fill="url(#paint25_linear_9_3)"/>
<path d="M18.2204 33.8938C16.2786 35.0148 14.5019 36.2502 12.9282 37.5494C12.3824 38.3774 11.8747 39.2307 11.4052 40.1096C10.1233 39.2181 8.79075 38.0716 7.47086 36.5942C6.79822 35.8427 6.12558 34.9892 5.46563 34.0467C5.16104 33.6009 4.89452 33.1679 4.67877 32.7475C4.64069 32.6584 4.58993 32.5819 4.55186 32.4928C4.51379 32.4291 4.48841 32.3653 4.46302 32.3017C4.37418 32.0978 4.28535 31.9069 4.20919 31.7158C4.18382 31.6649 4.17112 31.614 4.15843 31.5757C3.9173 30.9134 3.80307 30.302 3.765 29.716C3.48579 24.3155 11.2909 22.2266 11.9001 22.0737C11.7098 23.3729 11.8621 24.9014 12.6235 26.6718C13.0297 27.6144 13.6007 28.6206 14.3749 29.7033C15.5806 31.3846 16.8878 32.7603 18.2204 33.8938Z" fill="url(#paint26_linear_9_3)"/>
<path d="M72.5646 27.4998C72.2727 28.3658 71.7397 29.2956 70.9274 30.2891C68.8841 32.7857 65.2418 33.7664 61.1424 33.9193C60.216 32.8875 59.2133 31.9195 58.16 31.028C62.0181 28.9391 65.6224 26.4425 67.2723 23.8059C68.0084 22.6214 68.3637 21.3986 68.1481 20.1758C68.1353 20.0867 68.1099 19.9975 68.0972 19.8956C70.7625 21.2585 73.8845 23.7168 72.5646 27.4998Z" fill="url(#paint27_linear_9_3)"/>
<path d="M72.5647 27.4998C69.9884 31.3845 67.2723 23.8059 67.2723 23.8059C68.0085 22.6214 68.3639 21.3986 68.1481 20.1758C68.1354 20.0867 68.11 19.9975 68.0974 19.8956C70.7625 21.2585 73.8846 23.7168 72.5647 27.4998Z" fill="url(#paint28_linear_9_3)"/>
<path d="M12.6235 26.6592C4.86915 33.3971 3.84115 30.0855 3.75231 29.7033C3.4731 24.3028 11.2782 22.2139 11.8874 22.061C11.7098 23.3602 11.8621 24.8887 12.6235 26.6592Z" fill="url(#paint29_linear_9_3)"/>
<mask id="mask5_9_3" style="mask-type:alpha" maskUnits="userSpaceOnUse" x="8" y="22" width="61" height="62">
<path d="M45.9464 82.0423C62.0367 77.7426 71.6074 61.1659 67.323 45.0172C63.0386 28.8687 46.5217 19.2634 30.4313 23.5632C14.3409 27.8631 4.77024 44.4398 9.05461 60.5884C13.3389 76.737 29.8559 86.3422 45.9464 82.0423Z" fill="url(#paint30_radial_9_3)"/>
</mask>
<g mask="url(#mask5_9_3)">
<path d="M68.004 44.9322C62.9892 41.1284 55.1384 39.11 46.2046 39.4464C42.582 39.5758 38.7919 40.0933 34.9374 41.0378C21.9557 44.1947 11.7456 51.2848 7.67193 59.0089C7.47856 57.5986 7.37543 56.1624 7.37543 54.7134C7.37543 53.5748 7.43988 52.4363 7.55591 51.3236C7.81374 48.9171 8.34229 46.5882 9.12867 44.3628C9.64433 42.875 10.276 41.4389 11.0108 40.0545C11.4878 39.1618 12.0035 38.2949 12.5579 37.4539C12.648 37.3764 12.7382 37.2987 12.8414 37.221C13.125 36.9882 13.4215 36.7553 13.7181 36.5353C13.8212 36.4577 13.9243 36.3801 14.0146 36.3024C14.1177 36.2248 14.2208 36.1472 14.324 36.0825C14.4142 36.0178 14.5044 35.9531 14.6075 35.8884C15.6518 35.138 16.7734 34.4264 17.9336 33.7407C22.5873 31.0366 28.208 28.9018 34.3959 27.6727C34.5636 27.6468 34.7183 27.6081 34.8858 27.5821C41.3573 26.353 47.6097 26.2754 53.1015 27.1681C53.6687 27.4657 54.2231 27.7891 54.7774 28.1256C56.0923 28.9407 57.3428 29.8463 58.516 30.8426C59.5859 31.7482 60.6044 32.7315 61.5454 33.7796C64.4073 36.9623 66.6376 40.7531 68.004 44.9322Z" fill="url(#paint31_linear_9_3)"/>
</g>
<mask id="mask6_9_3" style="mask-type:alpha" maskUnits="userSpaceOnUse" x="8" y="22" width="61" height="62">
<path d="M45.9464 82.0424C62.0367 77.7426 71.6074 61.1658 67.323 45.0172C63.0386 28.8687 46.5217 19.2634 30.4313 23.5632C14.3409 27.8631 4.77024 44.4398 9.05461 60.5885C13.3389 76.737 29.8559 86.3423 45.9464 82.0424Z" fill="url(#paint32_radial_9_3)"/>
</mask>
<g mask="url(#mask6_9_3)">
<mask id="mask7_9_3" style="mask-type:alpha" maskUnits="userSpaceOnUse" x="7" y="26" width="62" height="34">
<path d="M68.004 44.9321C62.9892 41.1283 55.1384 39.11 46.2046 39.4464C42.582 39.5757 38.7919 40.0932 34.9374 41.0377C21.9557 44.1946 11.7456 51.2847 7.67193 59.0088C7.47856 57.5985 7.37543 56.1623 7.37543 54.7133C7.37543 53.5747 7.43988 52.4362 7.55591 51.3235C7.81374 48.9171 8.34229 46.5882 9.12867 44.3629C9.64433 42.8749 10.276 41.4388 11.0108 40.0545C11.4878 39.1617 12.0035 38.2949 12.5579 37.4539C12.648 37.3763 12.7382 37.2986 12.8414 37.221C13.125 36.9881 13.4215 36.7553 13.7181 36.5353C13.8212 36.4577 13.9243 36.38 14.0146 36.3024C14.1177 36.2248 14.2208 36.1472 14.324 36.0824C14.4142 36.0178 14.5044 35.9531 14.6075 35.8883C15.6518 35.138 16.7734 34.4264 17.9336 33.7407C22.5873 31.0366 28.208 28.9019 34.3959 27.6727C34.5636 27.6468 34.7183 27.608 34.8858 27.5822C41.3573 26.353 47.6097 26.2754 53.1015 27.1681C53.6687 27.4657 54.2231 27.7892 54.7774 28.1255C56.0923 28.9406 57.3428 29.8463 58.516 30.8425C59.5859 31.7482 60.6044 32.7315 61.5454 33.7795C64.4073 36.9623 66.6376 40.7532 68.004 44.9321Z" fill="url(#paint33_linear_9_3)"/>
</mask>
<g mask="url(#mask7_9_3)">
<g filter="url(#filter13_f_9_3)">
<path d="M7.37543 54.7133C7.37543 53.5747 7.43988 52.4362 7.55591 51.3235C7.81374 48.9171 8.34229 46.5882 9.12867 44.3629C9.64433 42.8749 10.276 41.4388 11.0108 40.0545C11.4878 39.1617 12.0035 38.2949 12.5579 37.4539C12.648 37.3763 12.7382 37.2986 12.8414 37.221C13.125 36.9881 13.4215 36.7553 13.7181 36.5353C13.8212 36.4577 13.9243 36.38 14.0146 36.3024C14.1177 36.2248 14.2208 36.1472 14.324 36.0824C14.4142 36.0178 14.5044 35.9531 14.6075 35.8883C15.6518 35.138 16.7734 34.4264 17.9336 33.7407C22.5873 31.0366 28.208 28.9019 34.3959 27.6727C34.5636 27.6468 34.7183 27.608 34.8858 27.5822C41.3573 26.353 47.6097 26.2754 53.1015 27.1681C53.6687 27.4657 54.2231 27.7892 54.7774 28.1255C56.0923 28.9406 57.3428 29.8463 58.516 30.8425C59.5859 31.7482 60.6044 32.7315 61.5454 33.7795" stroke="#808080" stroke-width="8"/>
</g>
</g>
</g>
<g opacity="0.5">
<mask id="mask8_9_3" style="mask-type:alpha" maskUnits="userSpaceOnUse" x="8" y="22" width="61" height="62">
<g opacity="0.5">
<path d="M45.9464 82.0423C62.0367 77.7426 71.6074 61.1659 67.323 45.0172C63.0386 28.8687 46.5217 19.2634 30.4313 23.5632C14.3409 27.8631 4.77024 44.4398 9.05461 60.5884C13.3389 76.737 29.8559 86.3422 45.9464 82.0423Z" fill="url(#paint34_radial_9_3)"/>
</g>
</mask>
<g mask="url(#mask8_9_3)">
<g filter="url(#filter14_f_9_3)">
<path d="M77.2421 69.4377L68.279 62.3744C67.729 61.9478 67.0164 61.86 66.4164 62.0858C66.3039 62.0356 66.1789 62.0105 66.0539 61.9854C65.7789 61.9353 65.5039 61.9603 65.2413 62.0231C64.9663 62.0984 64.6913 62.1736 64.4163 62.2489C64.1413 62.3367 63.8538 62.4245 63.5787 62.5124C63.3037 62.6002 63.0162 62.7006 62.7412 62.8009C62.4662 62.9013 62.1787 63.0142 61.9161 63.1271C61.6411 63.24 61.3661 63.3655 61.0911 63.4784C60.8161 63.6039 60.5536 63.7293 60.291 63.8673C60.0285 64.0053 59.766 64.1433 59.516 64.2813C59.266 64.4194 59.016 64.5699 58.766 64.7205C58.5284 64.871 58.2909 65.0341 58.0534 65.1972C56.5908 66.226 54.5032 67.9824 55.3282 69.9772C55.4908 70.3787 55.7158 70.6421 55.9783 70.8052C55.7783 70.8805 55.5908 70.9934 55.4158 71.1314C54.4532 71.8967 54.2907 73.2893 55.0407 74.2679L63.1787 84.6434C63.1787 84.6434 65.7039 88.8589 71.7542 87.943C78.1796 86.977 78.5171 80.5284 79.0297 77.1911L79.3922 74.9956C79.7422 72.8879 78.9172 70.7551 77.2421 69.4377ZM67.3665 76.9026C67.3165 78.0694 64.5288 79.1608 62.2287 76.2251C62.2287 76.2251 62.2287 76.2251 62.2162 76.2126L58.5284 71.5078C58.3159 71.2444 58.0659 71.0436 57.7784 70.8931C58.3034 70.7425 58.816 70.5041 59.2535 70.316C60.8411 69.6134 62.3787 69.3499 63.8413 70.5041C66.8039 72.8251 67.4165 75.7358 67.3665 76.9026Z" fill="#B04B02"/>
</g>
</g>
</g>
<path d="M77.2421 67.8066L68.2791 60.7433C67.7291 60.3167 67.0165 60.2289 66.4165 60.4547C66.304 60.4045 66.179 60.3794 66.054 60.3543C65.7789 60.3041 65.5039 60.3292 65.2414 60.392C64.9664 60.4672 64.6914 60.5425 64.4163 60.6178C64.1413 60.7056 63.8538 60.7934 63.5788 60.8813C63.3038 60.9691 63.0163 61.0695 62.7413 61.1698C62.4662 61.2702 62.1787 61.3831 61.9162 61.496C61.6412 61.6089 61.3662 61.7344 61.0912 61.8473C60.8161 61.9728 60.5536 62.0982 60.2911 62.2362C60.0286 62.3742 59.7661 62.5122 59.5161 62.6502C59.266 62.7883 59.016 62.9388 58.766 63.0894C58.5285 63.2399 58.291 63.403 58.0535 63.5661C56.5909 64.5949 54.5033 66.3513 55.3283 68.3461C55.4908 68.7476 55.7158 69.011 55.9783 69.1741C55.7783 69.2494 55.5908 69.3623 55.4158 69.5003C54.4533 70.2656 54.2907 71.6582 55.0408 72.6368L63.1788 83.0123C63.1788 83.0123 65.7039 87.2278 71.7543 86.3119C78.1797 85.3459 78.5172 78.8973 79.0297 75.56L79.3922 73.3645C79.7423 71.2568 78.9172 69.124 77.2421 67.8066ZM67.3665 75.2715C67.3165 76.4383 64.5289 77.5297 62.2287 74.594C62.2287 74.594 62.2287 74.594 62.2162 74.5814L58.5285 69.8767C58.316 69.6133 58.066 69.4125 57.7785 69.262C58.3035 69.1114 58.816 68.873 59.2535 68.6848C60.8411 67.9823 62.3787 67.7188 63.8413 68.873C66.804 71.194 67.4165 74.1047 67.3665 75.2715Z" fill="url(#paint35_radial_9_3)"/>
<path d="M77.2421 67.8066L68.2791 60.7433C67.7291 60.3167 67.0165 60.2289 66.4165 60.4547C66.304 60.4045 66.179 60.3794 66.054 60.3543C65.7789 60.3041 65.5039 60.3292 65.2414 60.392C64.9664 60.4672 64.6914 60.5425 64.4163 60.6178C64.1413 60.7056 63.8538 60.7934 63.5788 60.8813C63.3038 60.9691 63.0163 61.0695 62.7413 61.1698C62.4662 61.2702 62.1787 61.3831 61.9162 61.496C61.6412 61.6089 61.3662 61.7344 61.0912 61.8473C60.8161 61.9728 60.5536 62.0982 60.2911 62.2362C60.0286 62.3742 59.7661 62.5122 59.5161 62.6502C59.266 62.7883 59.016 62.9388 58.766 63.0894C58.5285 63.2399 58.291 63.403 58.0535 63.5661C56.5909 64.5949 54.5033 66.3513 55.3283 68.3461C55.4908 68.7476 55.7158 69.011 55.9783 69.1741C55.7783 69.2494 55.5908 69.3623 55.4158 69.5003C54.4533 70.2656 54.2907 71.6582 55.0408 72.6368L63.1788 83.0123C63.1788 83.0123 65.7039 87.2278 71.7543 86.3119C78.1797 85.3459 78.5172 78.8973 79.0297 75.56L79.3922 73.3645C79.7423 71.2568 78.9172 69.124 77.2421 67.8066ZM67.3665 75.2715C67.3165 76.4383 64.5289 77.5297 62.2287 74.594C62.2287 74.594 62.2287 74.594 62.2162 74.5814L58.5285 69.8767C58.316 69.6133 58.066 69.4125 57.7785 69.262C58.3035 69.1114 58.816 68.873 59.2535 68.6848C60.8411 67.9823 62.3787 67.7188 63.8413 68.873C66.804 71.194 67.4165 74.1047 67.3665 75.2715Z" fill="url(#paint36_linear_9_3)"/>
<path d="M66.679 80.2523L63.1913 83.0124L55.0408 72.6369C54.2782 71.6709 54.4407 70.2657 55.4158 69.5004C55.5283 69.4126 55.6533 69.3373 55.7783 69.2746C55.7908 69.2621 55.8033 69.2621 55.8283 69.2495C55.8533 69.237 55.8783 69.2244 55.8908 69.2119C55.9158 69.1993 55.9533 69.1868 55.9908 69.1742C56.2534 69.0739 56.5284 69.0237 56.7909 69.0237C56.8034 69.0237 56.8159 69.0237 56.8284 69.0237C57.2284 69.0237 57.6159 69.1491 57.966 69.3624C58.0285 69.4001 58.091 69.4502 58.1535 69.5004C58.291 69.6133 58.416 69.7388 58.5285 69.8768L66.679 80.2523Z" fill="url(#paint37_linear_9_3)"/>
<mask id="mask9_9_3" style="mask-type:alpha" maskUnits="userSpaceOnUse" x="54" y="69" width="13" height="15">
<path d="M66.679 80.2523L63.1913 83.0124L55.0408 72.6369C54.2782 71.6709 54.4407 70.2657 55.4158 69.5004C55.5283 69.4126 55.6533 69.3373 55.7783 69.2746C55.7908 69.2621 55.8033 69.2621 55.8283 69.2495C55.8533 69.237 55.8783 69.2244 55.8908 69.2119C55.9158 69.1993 55.9533 69.1868 55.9908 69.1742C56.2534 69.0739 56.5284 69.0237 56.7909 69.0237C56.8034 69.0237 56.8159 69.0237 56.8284 69.0237C57.2284 69.0237 57.6159 69.1491 57.966 69.3624C58.0285 69.4001 58.091 69.4502 58.1535 69.5004C58.291 69.6133 58.416 69.7388 58.5285 69.8768L66.679 80.2523Z" fill="white"/>
</mask>
<g mask="url(#mask9_9_3)">
<g style="mix-blend-mode:color-burn" filter="url(#filter15_f_9_3)">
<path d="M63.1788 83.0127C62.2663 81.9086 61.3662 80.8046 60.4537 79.688C59.5536 78.5714 58.6536 77.4673 57.766 76.3382L55.0908 73.001L54.9283 72.7877C54.8783 72.7124 54.8158 72.6371 54.7658 72.5619C54.6658 72.3988 54.5783 72.2231 54.5158 72.0349C54.3908 71.6711 54.3533 71.2696 54.4158 70.8933C54.4783 70.5043 54.6283 70.1405 54.8533 69.8268C55.0908 69.5132 55.3784 69.2623 55.7409 69.0866L55.7284 69.0992C55.7659 69.0866 55.7909 69.0615 55.8284 69.049L55.9159 69.0114L55.9784 68.9988C55.9534 68.9988 55.9159 69.0114 55.8909 69.0239C55.8659 69.0365 55.8534 69.0615 55.8534 69.0615C55.8534 69.0615 55.8659 69.049 55.8909 69.0239C55.9159 69.0114 55.9534 68.9988 55.9784 68.9988L55.9159 69.0114C56.0659 68.9486 56.2159 68.911 56.3659 68.8859C56.4409 68.8734 56.5159 68.8608 56.6034 68.8608C56.6409 68.8608 56.6784 68.8608 56.7159 68.8483C56.7534 68.8483 56.7909 68.8483 56.8534 68.8483H56.8409C57.2785 68.8608 57.7035 68.9863 58.066 69.2121L57.966 69.187H58.0035L58.0535 69.2121C58.1285 69.2497 58.2035 69.3125 58.266 69.3627C58.3285 69.4128 58.4035 69.4756 58.4535 69.5257C58.516 69.5885 58.5785 69.6512 58.6286 69.7139L58.7786 69.9021L59.3661 70.6674C59.7536 71.1693 60.1411 71.6837 60.5287 72.198C60.9162 72.7124 61.2912 73.2268 61.6662 73.7412C62.0413 74.2556 62.4163 74.77 62.7788 75.2969C62.3538 74.8201 61.9413 74.3308 61.5287 73.8416C61.1162 73.3523 60.7037 72.863 60.3037 72.3737C59.9036 71.8844 59.4911 71.3825 59.0911 70.8807L58.491 70.1405L58.341 69.9523C58.291 69.9021 58.241 69.8394 58.191 69.7892C58.141 69.739 58.091 69.6888 58.0285 69.6387C57.966 69.5885 57.916 69.5508 57.8535 69.5132L57.9535 69.5383H57.9035L57.8535 69.5132C57.541 69.325 57.1785 69.2121 56.8159 69.2121H56.8034H56.7159C56.6784 69.2121 56.6534 69.2121 56.6159 69.2121C56.5534 69.2121 56.4784 69.2246 56.4159 69.2372C56.2909 69.2623 56.1534 69.2999 56.0409 69.3501L55.9784 69.3627C56.0034 69.3627 56.0409 69.3501 56.0659 69.3376C56.0909 69.325 56.1034 69.2999 56.1034 69.2999C56.1034 69.2999 56.0909 69.3125 56.0659 69.3376C56.0409 69.3501 56.0034 69.3627 55.9784 69.3627L56.0409 69.3501L55.9659 69.3752C55.9409 69.3877 55.9284 69.4003 55.9034 69.4003L55.8909 69.4128C55.6034 69.5508 55.3409 69.7767 55.1408 70.0401C54.9408 70.3036 54.8158 70.6172 54.7658 70.9434C54.7158 71.2696 54.7408 71.6084 54.8533 71.922C54.9033 72.0726 54.9783 72.2231 55.0658 72.3611C55.1158 72.4364 55.1533 72.4991 55.2159 72.5619L55.3784 72.7751L58.0035 76.1751C58.8786 77.3042 59.7411 78.4459 60.6162 79.5876C61.4662 80.7293 62.3288 81.8584 63.1788 83.0127Z" fill="#720000"/>
</g>
</g>
<mask id="mask10_9_3" style="mask-type:alpha" maskUnits="userSpaceOnUse" x="55" y="63" width="20" height="13">
<path d="M74.3795 73.3896C74.4795 76.5261 67.379 75.5601 67.379 75.5601L67.329 75.4974C67.354 75.4221 67.3665 75.3468 67.379 75.259C67.429 74.0922 66.8165 71.1941 63.8538 68.8606C62.3912 67.7189 60.8537 67.9698 59.2661 68.6724C58.841 68.8606 58.316 69.0989 57.791 69.2495C57.8535 69.2746 57.916 69.3122 57.966 69.3499L57.6535 69.2997C57.0409 69.2369 56.4784 68.8731 56.1659 68.296C56.0159 68.0074 55.9409 67.7063 55.9409 67.3927C55.9409 66.7528 56.2534 66.1381 56.8159 65.7743C56.8659 65.7492 56.9034 65.7241 56.9534 65.699L59.6536 64.2562C59.8536 64.1433 60.0786 64.0555 60.3036 64.0053C60.5286 63.9425 60.7536 63.9175 60.9912 63.9049L64.4414 63.8171C65.1164 63.8045 65.7664 64.0053 66.304 64.3942L66.829 64.7706L70.5292 67.4805L72.4418 68.8731C72.4418 68.8857 74.267 70.2532 74.3795 73.3896Z" fill="white"/>
</mask>
<g mask="url(#mask10_9_3)">
<g style="mix-blend-mode:color-burn" filter="url(#filter16_f_9_3)">
<path d="M57.6535 69.3123C57.4159 69.2998 57.1909 69.237 56.9784 69.1367C56.7659 69.0363 56.5659 68.8983 56.4034 68.7226C56.0659 68.3714 55.8658 67.9072 55.8533 67.4053C55.8408 66.916 56.0159 66.4142 56.3409 66.0378C56.5034 65.8496 56.7034 65.6865 56.9159 65.5736L57.5285 65.2349L58.7535 64.5574L59.3661 64.2187C59.5661 64.1057 59.7911 63.9803 60.0161 63.905C60.2536 63.8172 60.4911 63.767 60.7411 63.7419C60.9912 63.7168 61.2162 63.7168 61.4537 63.7043L62.8538 63.6666L64.2539 63.629C64.3664 63.629 64.4914 63.6164 64.6164 63.629C64.7414 63.629 64.8664 63.6415 64.9914 63.6541C65.2414 63.6917 65.4789 63.7545 65.7039 63.8423C65.9289 63.9301 66.154 64.0556 66.354 64.1936C66.554 64.3316 66.729 64.4696 66.9165 64.6201L68.0291 65.4607C69.5167 66.5898 70.9917 67.7315 72.4543 68.8857C71.6793 68.3714 70.9167 67.8319 70.1417 67.305C69.3792 66.7655 68.6166 66.2385 67.8541 65.6991L66.7165 64.8836C66.529 64.7456 66.329 64.6076 66.154 64.4821C65.9665 64.3567 65.7789 64.2563 65.5664 64.181C65.3664 64.1057 65.1414 64.0556 64.9289 64.0179C64.8164 64.0054 64.7164 63.9928 64.6039 63.9928C64.4914 63.9928 64.3789 63.9928 64.2663 64.0054L62.8663 64.043L61.4662 64.0806C61.2287 64.0932 60.9912 64.0806 60.7786 64.1057C60.5661 64.1308 60.3411 64.181 60.1411 64.2437C59.9286 64.3065 59.7411 64.4194 59.5286 64.5198L58.9035 64.8459L57.666 65.4858L57.0409 65.7994C56.8409 65.8998 56.6659 66.0253 56.5159 66.1884C56.2159 66.502 56.0409 66.9411 56.0284 67.3928C56.0159 67.8319 56.1784 68.2961 56.4659 68.6348C56.7534 69.0112 57.1909 69.2496 57.6535 69.3123Z" fill="#AF2A10"/>
</g>
</g>
<g opacity="0.4">
<mask id="mask11_9_3" style="mask-type:alpha" maskUnits="userSpaceOnUse" x="55" y="63" width="20" height="13">
<g opacity="0.4">
<path d="M74.3795 73.3896C74.4795 76.5261 67.379 75.5601 67.379 75.5601L67.329 75.4974C67.354 75.4221 67.3665 75.3468 67.379 75.259C67.429 74.0922 66.8165 71.1941 63.8538 68.8606C62.3912 67.7189 60.8537 67.9698 59.2661 68.6724C58.841 68.8606 58.316 69.0989 57.791 69.2495C57.8535 69.2746 57.916 69.3122 57.966 69.3499L57.6535 69.2997C57.0409 69.2369 56.4784 68.8731 56.1659 68.296C56.0159 68.0074 55.9409 67.7063 55.9409 67.3927C55.9409 66.7528 56.2534 66.1381 56.8159 65.7743C56.8659 65.7492 56.9034 65.7241 56.9534 65.699L59.6536 64.2562C59.8536 64.1433 60.0786 64.0555 60.3036 64.0053C60.5286 63.9425 60.7536 63.9175 60.9912 63.9049L64.4414 63.8171C65.1164 63.8045 65.7664 64.0053 66.304 64.3942L66.829 64.7706L70.5292 67.4805L72.4418 68.8731C72.4418 68.8857 74.267 70.2532 74.3795 73.3896Z" fill="white"/>
</g>
</mask>
<g mask="url(#mask11_9_3)">
<g style="mix-blend-mode:color-burn" filter="url(#filter17_f_9_3)">
<path d="M57.6535 69.3123C57.4159 69.2998 57.1909 69.237 56.9784 69.1367C56.7659 69.0363 56.5659 68.8983 56.4034 68.7226C56.0659 68.3714 55.8658 67.9072 55.8533 67.4053C55.8408 66.916 56.0159 66.4142 56.3409 66.0378C56.5034 65.8496 56.7034 65.6865 56.9159 65.5736L57.5285 65.2349L58.7535 64.5574L59.3661 64.2187C59.5661 64.1057 59.7911 63.9803 60.0161 63.905C60.2536 63.8172 60.4911 63.767 60.7411 63.7419C60.9912 63.7168 61.2162 63.7168 61.4537 63.7043L62.8538 63.6666L64.2539 63.629C64.3664 63.629 64.4914 63.6164 64.6164 63.629C64.7414 63.629 64.8664 63.6415 64.9914 63.6541C65.2414 63.6917 65.4789 63.7545 65.7039 63.8423C65.9289 63.9301 66.154 64.0556 66.354 64.1936C66.554 64.3316 66.729 64.4696 66.9165 64.6201L68.0291 65.4607C69.5167 66.5898 70.9917 67.7315 72.4543 68.8857C71.6793 68.3714 70.9167 67.8319 70.1417 67.305C69.3792 66.7655 68.6166 66.2385 67.8541 65.6991L66.7165 64.8836C66.529 64.7456 66.329 64.6076 66.154 64.4821C65.9665 64.3567 65.7789 64.2563 65.5664 64.181C65.3664 64.1057 65.1414 64.0556 64.9289 64.0179C64.8164 64.0054 64.7164 63.9928 64.6039 63.9928C64.4914 63.9928 64.3789 63.9928 64.2663 64.0054L62.8663 64.043L61.4662 64.0806C61.2287 64.0932 60.9912 64.0806 60.7786 64.1057C60.5661 64.1308 60.3411 64.181 60.1411 64.2437C59.9286 64.3065 59.7411 64.4194 59.5286 64.5198L58.9035 64.8459L57.666 65.4858L57.0409 65.7994C56.8409 65.8998 56.6659 66.0253 56.5159 66.1884C56.2159 66.502 56.0409 66.9411 56.0284 67.3928C56.0159 67.8319 56.1784 68.2961 56.4659 68.6348C56.7534 69.0112 57.1909 69.2496 57.6535 69.3123Z" fill="#AF2A10"/>
</g>
</g>
</g>
<mask id="mask12_9_3" style="mask-type:alpha" maskUnits="userSpaceOnUse" x="55" y="60" width="24" height="17">
<path d="M78.2422 74.8198C77.5422 77.2538 74.217 76.4759 71.8043 75.5475C73.2169 75.2966 74.417 74.6944 74.3795 73.4021C74.2795 70.2657 72.4419 68.8982 72.4419 68.8982L70.5292 67.5056L66.829 64.7831L66.304 64.4067C65.7665 64.0178 65.1039 63.8045 64.4414 63.8296L60.9787 63.93C60.7412 63.93 60.5161 63.9676 60.2911 64.0303C60.0661 64.0931 59.8536 64.1809 59.6411 64.2812L56.9534 65.7115C56.9034 65.7366 56.8659 65.7617 56.8159 65.7868C56.2534 66.1506 55.9409 66.7653 55.9409 67.4052C55.9409 67.7063 56.0159 68.0199 56.1659 68.3085C56.3284 68.6096 56.5534 68.8605 56.8284 69.0236C56.8159 69.0236 56.8034 69.0236 56.7909 69.0236C56.5159 69.0236 56.2409 69.0738 55.9909 69.1742C55.7284 69.0111 55.5033 68.7476 55.3408 68.3461C54.5033 66.3513 56.5909 64.5949 58.0285 63.5912C58.266 63.4281 58.5035 63.2776 58.741 63.1145C58.991 62.9639 59.2411 62.8134 59.4911 62.6628C59.7536 62.5248 60.0036 62.3868 60.2661 62.2488C60.5286 62.1108 60.8037 61.9853 61.0662 61.8599C61.3412 61.7344 61.6162 61.6215 61.8912 61.5086C62.1662 61.3957 62.4413 61.2828 62.7288 61.1824C63.0038 61.082 63.2788 60.9817 63.5663 60.8938C63.8413 60.806 64.1164 60.7182 64.4039 60.6304C64.6789 60.5551 64.9539 60.4798 65.2289 60.4045C65.4914 60.3293 65.7665 60.3167 66.0415 60.3669L66.404 60.4673C66.5415 60.5175 66.679 60.5927 66.804 60.6806C66.8415 60.7056 66.8665 60.7307 66.904 60.7558L77.5047 69.0989C77.5172 69.0989 79.3798 70.9055 78.2422 74.8198Z" fill="white"/>
</mask>
<g mask="url(#mask12_9_3)">
<g style="mix-blend-mode:color-burn" filter="url(#filter18_f_9_3)">
<path d="M55.3283 68.3463C55.2033 68.0703 55.1283 67.7566 55.1158 67.4555C55.1033 67.1419 55.1658 66.8282 55.2533 66.5397C55.4533 65.95 55.8283 65.4356 56.2409 64.9714C57.0784 64.0556 58.1035 63.353 59.1535 62.7131C60.2036 62.0733 61.3287 61.5589 62.4662 61.1072C63.0413 60.8814 63.6163 60.6932 64.2038 60.505C64.4913 60.4172 64.7914 60.3419 65.0914 60.2541C65.3914 60.1663 65.7414 60.1287 66.0789 60.1788H66.0914H66.1039L66.4665 60.2792H66.479H66.4915C66.6415 60.3419 66.7915 60.4172 66.9165 60.505C67.054 60.6054 67.154 60.6932 67.279 60.7811L67.9666 61.3205L69.3416 62.412L72.0918 64.6076C73.0044 65.3478 73.9169 66.088 74.817 66.8282C75.717 67.581 76.6296 68.3212 77.5296 69.0739C76.5796 68.3839 75.6545 67.6688 74.7045 66.9662C73.7669 66.2636 72.8419 65.5485 71.9043 64.8334L69.1166 62.688L67.729 61.6091L67.0415 61.0696C66.929 60.9818 66.804 60.8814 66.704 60.8061C66.5915 60.7309 66.479 60.6681 66.354 60.618H66.3665L66.0039 60.5552H66.0164C65.7414 60.505 65.4664 60.5301 65.1914 60.618C64.9039 60.7058 64.6039 60.7685 64.3163 60.8563C63.7413 61.032 63.1663 61.2202 62.5912 61.4334C61.4537 61.86 60.3536 62.3618 59.291 62.9641C58.2535 63.5663 57.2284 64.2437 56.3784 65.0969C55.9533 65.5234 55.5783 66.0127 55.3533 66.5773C55.2408 66.8533 55.1783 67.1544 55.1783 67.4555C55.1658 67.7566 55.2158 68.0577 55.3283 68.3463Z" fill="#AF2A10"/>
</g>
</g>
<g opacity="0.3">
<mask id="mask13_9_3" style="mask-type:alpha" maskUnits="userSpaceOnUse" x="55" y="60" width="24" height="17">
<g opacity="0.3">
<path d="M78.2422 74.8198C77.5422 77.2538 74.217 76.4759 71.8043 75.5475C73.2169 75.2966 74.417 74.6944 74.3795 73.4021C74.2795 70.2657 72.4419 68.8982 72.4419 68.8982L70.5292 67.5056L66.829 64.7831L66.304 64.4067C65.7665 64.0178 65.1039 63.8045 64.4414 63.8296L60.9787 63.93C60.7412 63.93 60.5161 63.9676 60.2911 64.0303C60.0661 64.0931 59.8536 64.1809 59.6411 64.2812L56.9534 65.7115C56.9034 65.7366 56.8659 65.7617 56.8159 65.7868C56.2534 66.1506 55.9409 66.7653 55.9409 67.4052C55.9409 67.7063 56.0159 68.0199 56.1659 68.3085C56.3284 68.6096 56.5534 68.8605 56.8284 69.0236C56.8159 69.0236 56.8034 69.0236 56.7909 69.0236C56.5159 69.0236 56.2409 69.0738 55.9909 69.1742C55.7284 69.0111 55.5033 68.7476 55.3408 68.3461C54.5033 66.3513 56.5909 64.5949 58.0285 63.5912C58.266 63.4281 58.5035 63.2776 58.741 63.1145C58.991 62.9639 59.2411 62.8134 59.4911 62.6628C59.7536 62.5248 60.0036 62.3868 60.2661 62.2488C60.5286 62.1108 60.8037 61.9853 61.0662 61.8599C61.3412 61.7344 61.6162 61.6215 61.8912 61.5086C62.1662 61.3957 62.4413 61.2828 62.7288 61.1824C63.0038 61.082 63.2788 60.9817 63.5663 60.8938C63.8413 60.806 64.1164 60.7182 64.4039 60.6304C64.6789 60.5551 64.9539 60.4798 65.2289 60.4045C65.4914 60.3293 65.7665 60.3167 66.0415 60.3669L66.404 60.4673C66.5415 60.5175 66.679 60.5927 66.804 60.6806C66.8415 60.7056 66.8665 60.7307 66.904 60.7558L77.5047 69.0989C77.5172 69.0989 79.3798 70.9055 78.2422 74.8198Z" fill="white"/>
</g>
</mask>
<g mask="url(#mask13_9_3)">
<g style="mix-blend-mode:color-burn" filter="url(#filter19_f_9_3)">
<path d="M55.3283 68.3463C55.2033 68.0703 55.1283 67.7566 55.1158 67.4555C55.1033 67.1419 55.1658 66.8282 55.2533 66.5397C55.4533 65.95 55.8283 65.4356 56.2409 64.9714C57.0784 64.0556 58.1035 63.353 59.1535 62.7131C60.2036 62.0733 61.3287 61.5589 62.4662 61.1072C63.0413 60.8814 63.6163 60.6932 64.2038 60.505C64.4913 60.4172 64.7914 60.3419 65.0914 60.2541C65.3914 60.1663 65.7414 60.1287 66.0789 60.1788H66.0914H66.1039L66.4665 60.2792H66.479H66.4915C66.6415 60.3419 66.7915 60.4172 66.9165 60.505C67.054 60.6054 67.154 60.6932 67.279 60.7811L67.9666 61.3205L69.3416 62.412L72.0918 64.6076C73.0044 65.3478 73.9169 66.088 74.817 66.8282C75.717 67.581 76.6296 68.3212 77.5296 69.0739C76.5796 68.3839 75.6545 67.6688 74.7045 66.9662C73.7669 66.2636 72.8419 65.5485 71.9043 64.8334L69.1166 62.688L67.729 61.6091L67.0415 61.0696C66.929 60.9818 66.804 60.8814 66.704 60.8061C66.5915 60.7309 66.479 60.6681 66.354 60.618H66.3665L66.0039 60.5552H66.0164C65.7414 60.505 65.4664 60.5301 65.1914 60.618C64.9039 60.7058 64.6039 60.7685 64.3163 60.8563C63.7413 61.032 63.1663 61.2202 62.5912 61.4334C61.4537 61.86 60.3536 62.3618 59.291 62.9641C58.2535 63.5663 57.2284 64.2437 56.3784 65.0969C55.9533 65.5234 55.5783 66.0127 55.3533 66.5773C55.2408 66.8533 55.1783 67.1544 55.1783 67.4555C55.1658 67.7566 55.2158 68.0577 55.3283 68.3463Z" fill="#AF2A10"/>
</g>
</g>
</g>
<mask id="mask14_9_3" style="mask-type:alpha" maskUnits="userSpaceOnUse" x="54" y="60" width="26" height="27">
<path d="M77.2421 67.8066L68.2791 60.7433C67.7291 60.3167 67.0165 60.2289 66.4165 60.4547C66.304 60.4045 66.179 60.3794 66.054 60.3543C65.7789 60.3041 65.5039 60.3292 65.2414 60.392C64.9664 60.4672 64.6914 60.5425 64.4163 60.6178C64.1413 60.7056 63.8538 60.7934 63.5788 60.8813C63.3038 60.9691 63.0163 61.0695 62.7413 61.1698C62.4662 61.2702 62.1787 61.3831 61.9162 61.496C61.6412 61.6089 61.3662 61.7344 61.0912 61.8473C60.8161 61.9728 60.5536 62.0982 60.2911 62.2362C60.0286 62.3742 59.7661 62.5122 59.5161 62.6502C59.266 62.7883 59.016 62.9388 58.766 63.0894C58.5285 63.2399 58.291 63.403 58.0535 63.5661C56.5909 64.5949 54.5033 66.3513 55.3283 68.3461C55.4908 68.7476 55.7158 69.011 55.9783 69.1741C55.7783 69.2494 55.5908 69.3623 55.4158 69.5003C54.4533 70.2656 54.2907 71.6582 55.0408 72.6368L63.1788 83.0123C63.1788 83.0123 65.7039 87.2278 71.7543 86.3119C78.1797 85.3459 78.5172 78.8973 79.0297 75.56L79.3922 73.3645C79.7423 71.2568 78.9172 69.124 77.2421 67.8066ZM67.3665 75.2715C67.3165 76.4383 64.5289 77.5297 62.2287 74.594C62.2287 74.594 62.2287 74.594 62.2162 74.5814L58.5285 69.8767C58.316 69.6133 58.066 69.4125 57.7785 69.262C58.3035 69.1114 58.816 68.873 59.2535 68.6848C60.8411 67.9823 62.3787 67.7188 63.8413 68.873C66.804 71.194 67.4165 74.1047 67.3665 75.2715Z" fill="white"/>
</mask>
<g mask="url(#mask14_9_3)">
<g style="mix-blend-mode:color-burn" filter="url(#filter20_f_9_3)">
<path d="M71.7667 86.3246L72.3168 86.1992C72.4918 86.149 72.6793 86.0988 72.8543 86.0486C73.0293 85.9859 73.2043 85.9232 73.3793 85.8604C73.5543 85.7851 73.7169 85.7099 73.8919 85.6346C74.5669 85.3084 75.1794 84.8818 75.7045 84.3674C76.242 83.8531 76.667 83.2509 77.0296 82.611C77.3921 81.9712 77.6546 81.2686 77.8796 80.566C78.0921 79.8509 78.2546 79.1232 78.3796 78.3956C78.5046 77.6554 78.6046 76.9152 78.7047 76.1749C78.7547 75.7986 78.8047 75.4222 78.8672 75.0583L79.0422 73.9418L79.1297 73.3897C79.1422 73.2894 79.1547 73.2141 79.1672 73.1137C79.1797 73.0259 79.1922 72.9381 79.1922 72.8503C79.2297 72.4864 79.2047 72.1351 79.1672 71.7713C79.1297 71.4075 79.0422 71.0562 78.9422 70.7174C78.8297 70.3787 78.6922 70.04 78.5171 69.7263C78.3421 69.4127 78.1421 69.1116 77.9171 68.8356C77.6796 68.5595 77.4421 68.2961 77.1546 68.0703L73.6544 65.2474C72.4793 64.3065 71.3167 63.353 70.1666 62.3995L68.429 60.9567L68.2165 60.7811C68.1415 60.7183 68.0665 60.6681 67.9915 60.618C67.8415 60.5176 67.6665 60.4549 67.4915 60.4047C67.1415 60.3043 66.7539 60.3294 66.3914 60.4423C66.7414 60.3043 67.129 60.2541 67.504 60.3294C67.6915 60.367 67.879 60.4298 68.0415 60.5176C68.129 60.5678 68.204 60.618 68.2915 60.6681L68.5165 60.8312L70.3167 62.1737C71.5167 63.077 72.7043 63.9803 73.9044 64.8961C74.5044 65.3478 75.0919 65.812 75.692 66.2636C76.292 66.7278 76.8795 67.1795 77.4671 67.6437C78.6797 68.6223 79.4922 70.1027 79.6672 71.6584C79.7047 72.0473 79.7172 72.4362 79.6797 72.8377C79.6797 72.9381 79.6547 73.0385 79.6422 73.1263C79.6297 73.2266 79.6172 73.327 79.6047 73.4148L79.5172 73.9669C79.3922 74.7071 79.2672 75.4473 79.1547 76.1875C78.9422 77.6679 78.7172 79.186 78.2296 80.6288C77.9796 81.3439 77.6921 82.059 77.2921 82.7114C76.892 83.3638 76.4295 83.9785 75.8545 84.4804C75.2795 84.9822 74.6294 85.3962 73.9294 85.6848C73.2418 86.0612 72.5043 86.2368 71.7667 86.3246Z" fill="#AF2A10"/>
</g>
</g>
<mask id="mask15_9_3" style="mask-type:alpha" maskUnits="userSpaceOnUse" x="54" y="60" width="26" height="27">
<path d="M77.2421 67.8066L68.2791 60.7433C67.7291 60.3167 67.0165 60.2289 66.4165 60.4547C66.304 60.4045 66.179 60.3794 66.054 60.3543C65.7789 60.3041 65.5039 60.3292 65.2414 60.392C64.9664 60.4672 64.6914 60.5425 64.4163 60.6178C64.1413 60.7056 63.8538 60.7934 63.5788 60.8813C63.3038 60.9691 63.0163 61.0695 62.7413 61.1698C62.4662 61.2702 62.1787 61.3831 61.9162 61.496C61.6412 61.6089 61.3662 61.7344 61.0912 61.8473C60.8161 61.9728 60.5536 62.0982 60.2911 62.2362C60.0286 62.3742 59.7661 62.5122 59.5161 62.6502C59.266 62.7883 59.016 62.9388 58.766 63.0894C58.5285 63.2399 58.291 63.403 58.0535 63.5661C56.5909 64.5949 54.5033 66.3513 55.3283 68.3461C55.4908 68.7476 55.7158 69.011 55.9783 69.1741C55.7783 69.2494 55.5908 69.3623 55.4158 69.5003C54.4533 70.2656 54.2907 71.6582 55.0408 72.6368L63.1788 83.0123C63.1788 83.0123 65.7039 87.2278 71.7543 86.3119C78.1797 85.3459 78.5172 78.8973 79.0297 75.56L79.3922 73.3645C79.7423 71.2568 78.9172 69.124 77.2421 67.8066ZM67.3665 75.2715C67.3165 76.4383 64.5289 77.5297 62.2287 74.594C62.2287 74.594 62.2287 74.594 62.2162 74.5814L58.5285 69.8767C58.316 69.6133 58.066 69.4125 57.7785 69.262C58.3035 69.1114 58.816 68.873 59.2535 68.6848C60.8411 67.9823 62.3787 67.7188 63.8413 68.873C66.804 71.194 67.4165 74.1047 67.3665 75.2715Z" fill="white"/>
</mask>
<g mask="url(#mask15_9_3)">
<g style="mix-blend-mode:color-burn" filter="url(#filter21_f_9_3)">
<path d="M63.8412 68.873C64.3038 69.2118 64.7538 69.5882 65.1538 70.0147L65.3038 70.1653C65.3538 70.2155 65.4038 70.2782 65.4538 70.3284C65.5538 70.4413 65.6538 70.5417 65.7413 70.6546C65.9163 70.8929 66.1039 71.1188 66.2539 71.3697C66.8914 72.3483 67.3664 73.4649 67.5164 74.6442C67.5289 74.7195 67.5289 74.7947 67.5414 74.87C67.5414 74.9453 67.5539 75.0206 67.5539 75.0958V75.2088V75.2715C67.5539 75.2966 67.5539 75.3217 67.5539 75.3342C67.5539 75.3844 67.5414 75.422 67.5289 75.4597C67.5164 75.4973 67.5039 75.5475 67.4914 75.5851C67.3664 75.9113 67.1039 76.1372 66.8414 76.3003C66.5664 76.4634 66.2664 76.5637 65.9663 76.6139C65.6663 76.6641 65.3538 76.6641 65.0538 76.6139C64.4413 76.5261 63.8787 76.2626 63.3912 75.9239C62.9037 75.5851 62.4786 75.146 62.1161 74.6818L62.1036 74.6693V74.6567L62.1161 74.6693L61.2161 73.4774L60.316 72.2855C60.016 71.8841 59.7285 71.4826 59.4285 71.0811C59.1284 70.6797 58.8409 70.2782 58.5534 69.8642C58.8784 70.2406 59.2034 70.6169 59.516 71.0059C59.841 71.3822 60.166 71.7712 60.4785 72.1475L61.4286 73.3018L62.3661 74.4685L62.3786 74.4811C62.7412 74.9202 63.1412 75.3217 63.6037 75.6353C64.0662 75.949 64.5788 76.1748 65.1163 76.2501C65.6538 76.3253 66.2164 76.2626 66.6664 75.9866C66.7789 75.9239 66.8789 75.8361 66.9664 75.7482C67.0539 75.6604 67.1289 75.56 67.1664 75.4471C67.1789 75.422 67.1914 75.3969 67.1914 75.3719C67.2039 75.3468 67.2039 75.3217 67.2039 75.284C67.2039 75.2715 67.2039 75.2589 67.2039 75.2464V75.1962V75.0958C67.2039 75.0331 67.2039 74.9578 67.2039 74.8826C67.2039 74.8073 67.2039 74.7446 67.1914 74.6693C67.0664 73.5527 66.6539 72.4612 66.0789 71.4826C65.4788 70.504 64.7163 69.6384 63.8412 68.873Z" fill="#8C2400"/>
</g>
</g>
<g style="mix-blend-mode:soft-light">
<path d="M77.2421 67.8066L68.2791 60.7433C67.7291 60.3167 67.0165 60.2289 66.4165 60.4547C66.304 60.4045 66.179 60.3794 66.054 60.3543C65.7789 60.3041 65.5039 60.3292 65.2414 60.392C64.9664 60.4672 64.6914 60.5425 64.4163 60.6178C64.1413 60.7056 63.8538 60.7934 63.5788 60.8813C63.3038 60.9691 63.0163 61.0695 62.7413 61.1698C62.4662 61.2702 62.1787 61.3831 61.9162 61.496C61.6412 61.6089 61.3662 61.7344 61.0912 61.8473C60.8161 61.9728 60.5536 62.0982 60.2911 62.2362C60.0286 62.3742 59.7661 62.5122 59.5161 62.6502C59.266 62.7883 59.016 62.9388 58.766 63.0894C58.5285 63.2399 58.291 63.403 58.0535 63.5661C56.5909 64.5949 54.5033 66.3513 55.3283 68.3461C55.4908 68.7476 55.7158 69.011 55.9783 69.1741C55.7783 69.2494 55.5908 69.3623 55.4158 69.5003C54.4533 70.2656 54.2907 71.6582 55.0408 72.6368L63.1788 83.0123C63.1788 83.0123 65.7039 87.2278 71.7543 86.3119C78.1797 85.3459 78.5172 78.8973 79.0297 75.56L79.3922 73.3645C79.7423 71.2568 78.9172 69.124 77.2421 67.8066ZM67.3665 75.2715C67.3165 76.4383 64.5289 77.5297 62.2287 74.594C62.2287 74.594 62.2287 74.594 62.2162 74.5814L58.5285 69.8767C58.316 69.6133 58.066 69.4125 57.7785 69.262C58.3035 69.1114 58.816 68.873 59.2535 68.6848C60.8411 67.9823 62.3787 67.7188 63.8413 68.873C66.804 71.194 67.4165 74.1047 67.3665 75.2715Z" fill="url(#paint38_radial_9_3)"/>
</g>
</g>
<defs>
<filter id="filter0_f_9_3" x="-16.3572" y="19.7672" width="109.985" height="88.8818" filterUnits="userSpaceOnUse" color-interpolation-filters="sRGB">
<feFlood flood-opacity="0" result="BackgroundImageFix"/>
<feBlend mode="normal" in="SourceGraphic" in2="BackgroundImageFix" result="shape"/>
<feGaussianBlur stdDeviation="12.5" result="effect1_foregroundBlur_9_3"/>
</filter>
<filter id="filter1_f_9_3" x="-31.3572" y="4.76721" width="139.985" height="118.882" filterUnits="userSpaceOnUse" color-interpolation-filters="sRGB">
<feFlood flood-opacity="0" result="BackgroundImageFix"/>
<feBlend mode="normal" in="SourceGraphic" in2="BackgroundImageFix" result="shape"/>
<feGaussianBlur stdDeviation="20" result="effect1_foregroundBlur_9_3"/>
</filter>
<filter id="filter2_f_9_3" x="55.7564" y="11.144" width="57.9874" height="54.0487" filterUnits="userSpaceOnUse" color-interpolation-filters="sRGB">
<feFlood flood-opacity="0" result="BackgroundImageFix"/>
<feBlend mode="normal" in="SourceGraphic" in2="BackgroundImageFix" result="shape"/>
<feGaussianBlur stdDeviation="10" result="effect1_foregroundBlur_9_3"/>
</filter>
<filter id="filter3_f_9_3" x="63.9061" y="21.3947" width="22.61" height="35.6678" filterUnits="userSpaceOnUse" color-interpolation-filters="sRGB">
<feFlood flood-opacity="0" result="BackgroundImageFix"/>
<feBlend mode="normal" in="SourceGraphic" in2="BackgroundImageFix" result="shape"/>
<feGaussianBlur stdDeviation="5" result="effect1_foregroundBlur_9_3"/>
</filter>
<filter id="filter4_f_9_3" x="56.2864" y="9.26062" width="59.0585" height="54.386" filterUnits="userSpaceOnUse" color-interpolation-filters="sRGB">
<feFlood flood-opacity="0" result="BackgroundImageFix"/>
<feBlend mode="normal" in="SourceGraphic" in2="BackgroundImageFix" result="shape"/>
<feGaussianBlur stdDeviation="10" result="effect1_foregroundBlur_9_3"/>
</filter>
<filter id="filter5_f_9_3" x="56.2864" y="9.26062" width="59.0585" height="54.386" filterUnits="userSpaceOnUse" color-interpolation-filters="sRGB">
<feFlood flood-opacity="0" result="BackgroundImageFix"/>
<feBlend mode="normal" in="SourceGraphic" in2="BackgroundImageFix" result="shape"/>
<feGaussianBlur stdDeviation="10" result="effect1_foregroundBlur_9_3"/>
</filter>
<filter id="filter6_f_9_3" x="35.4087" y="-9.07971" width="97.9873" height="94.0486" filterUnits="userSpaceOnUse" color-interpolation-filters="sRGB">
<feFlood flood-opacity="0" result="BackgroundImageFix"/>
<feBlend mode="normal" in="SourceGraphic" in2="BackgroundImageFix" result="shape"/>
<feGaussianBlur stdDeviation="20" result="effect1_foregroundBlur_9_3"/>
</filter>
<filter id="filter7_f_9_3" x="70.1364" y="32.7845" width="34.075" height="26.7716" filterUnits="userSpaceOnUse" color-interpolation-filters="sRGB">
<feFlood flood-opacity="0" result="BackgroundImageFix"/>
<feBlend mode="normal" in="SourceGraphic" in2="BackgroundImageFix" result="shape"/>
<feGaussianBlur stdDeviation="5" result="effect1_foregroundBlur_9_3"/>
</filter>
<filter id="filter8_f_9_3" x="78.7316" y="25.0477" width="18.353" height="16.2566" filterUnits="userSpaceOnUse" color-interpolation-filters="sRGB">
<feFlood flood-opacity="0" result="BackgroundImageFix"/>
<feBlend mode="normal" in="SourceGraphic" in2="BackgroundImageFix" result="shape"/>
<feGaussianBlur stdDeviation="3" result="effect1_foregroundBlur_9_3"/>
</filter>
<filter id="filter9_f_9_3" x="80.7316" y="27.0477" width="14.353" height="12.2566" filterUnits="userSpaceOnUse" color-interpolation-filters="sRGB">
<feFlood flood-opacity="0" result="BackgroundImageFix"/>
<feBlend mode="normal" in="SourceGraphic" in2="BackgroundImageFix" result="shape"/>
<feGaussianBlur stdDeviation="2" result="effect1_foregroundBlur_9_3"/>
</filter>
<filter id="filter10_f_9_3" x="76.7316" y="23.0477" width="22.353" height="20.2566" filterUnits="userSpaceOnUse" color-interpolation-filters="sRGB">
<feFlood flood-opacity="0" result="BackgroundImageFix"/>
<feBlend mode="normal" in="SourceGraphic" in2="BackgroundImageFix" result="shape"/>
<feGaussianBlur stdDeviation="4" result="effect1_foregroundBlur_9_3"/>
</filter>
<filter id="filter11_f_9_3" x="15.9752" y="29.0052" width="79.7532" height="79.7885" filterUnits="userSpaceOnUse" color-interpolation-filters="sRGB">
<feFlood flood-opacity="0" result="BackgroundImageFix"/>
<feBlend mode="normal" in="SourceGraphic" in2="BackgroundImageFix" result="shape"/>
<feGaussianBlur stdDeviation="17.5" result="effect1_foregroundBlur_9_3"/>
</filter>
<filter id="filter12_f_9_3" x="-32.6246" y="-12.4277" width="140.629" height="112.44" filterUnits="userSpaceOnUse" color-interpolation-filters="sRGB">
<feFlood flood-opacity="0" result="BackgroundImageFix"/>
<feBlend mode="normal" in="SourceGraphic" in2="BackgroundImageFix" result="shape"/>
<feGaussianBlur stdDeviation="20" result="effect1_foregroundBlur_9_3"/>
</filter>
<filter id="filter13_f_9_3" x="-36.6246" y="-17.4313" width="141.146" height="112.145" filterUnits="userSpaceOnUse" color-interpolation-filters="sRGB">
<feFlood flood-opacity="0" result="BackgroundImageFix"/>
<feBlend mode="normal" in="SourceGraphic" in2="BackgroundImageFix" result="shape"/>
<feGaussianBlur stdDeviation="20" result="effect1_foregroundBlur_9_3"/>
</filter>
<filter id="filter14_f_9_3" x="19.5703" y="26.9587" width="94.9012" height="96.1145" filterUnits="userSpaceOnUse" color-interpolation-filters="sRGB">
<feFlood flood-opacity="0" result="BackgroundImageFix"/>
<feBlend mode="normal" in="SourceGraphic" in2="BackgroundImageFix" result="shape"/>
<feGaussianBlur stdDeviation="17.5" result="effect1_foregroundBlur_9_3"/>
</filter>
<filter id="filter15_f_9_3" x="37.3861" y="51.8483" width="42.7927" height="48.1644" filterUnits="userSpaceOnUse" color-interpolation-filters="sRGB">
<feFlood flood-opacity="0" result="BackgroundImageFix"/>
<feBlend mode="normal" in="SourceGraphic" in2="BackgroundImageFix" result="shape"/>
<feGaussianBlur stdDeviation="8.5" result="effect1_foregroundBlur_9_3"/>
</filter>
<filter id="filter16_f_9_3" x="40.8527" y="48.6234" width="46.6016" height="35.6888" filterUnits="userSpaceOnUse" color-interpolation-filters="sRGB">
<feFlood flood-opacity="0" result="BackgroundImageFix"/>
<feBlend mode="normal" in="SourceGraphic" in2="BackgroundImageFix" result="shape"/>
<feGaussianBlur stdDeviation="7.5" result="effect1_foregroundBlur_9_3"/>
</filter>
<filter id="filter17_f_9_3" x="40.8527" y="48.6234" width="46.6016" height="35.6888" filterUnits="userSpaceOnUse" color-interpolation-filters="sRGB">
<feFlood flood-opacity="0" result="BackgroundImageFix"/>
<feBlend mode="normal" in="SourceGraphic" in2="BackgroundImageFix" result="shape"/>
<feGaussianBlur stdDeviation="7.5" result="effect1_foregroundBlur_9_3"/>
</filter>
<filter id="filter18_f_9_3" x="37.1142" y="42.1564" width="58.4154" height="44.9176" filterUnits="userSpaceOnUse" color-interpolation-filters="sRGB">
<feFlood flood-opacity="0" result="BackgroundImageFix"/>
<feBlend mode="normal" in="SourceGraphic" in2="BackgroundImageFix" result="shape"/>
<feGaussianBlur stdDeviation="9" result="effect1_foregroundBlur_9_3"/>
</filter>
<filter id="filter19_f_9_3" x="37.1142" y="42.1564" width="58.4154" height="44.9176" filterUnits="userSpaceOnUse" color-interpolation-filters="sRGB">
<feFlood flood-opacity="0" result="BackgroundImageFix"/>
<feBlend mode="normal" in="SourceGraphic" in2="BackgroundImageFix" result="shape"/>
<feGaussianBlur stdDeviation="9" result="effect1_foregroundBlur_9_3"/>
</filter>
<filter id="filter20_f_9_3" x="46.3914" y="40.2944" width="53.3109" height="66.0302" filterUnits="userSpaceOnUse" color-interpolation-filters="sRGB">
<feFlood flood-opacity="0" result="BackgroundImageFix"/>
<feBlend mode="normal" in="SourceGraphic" in2="BackgroundImageFix" result="shape"/>
<feGaussianBlur stdDeviation="10" result="effect1_foregroundBlur_9_3"/>
</filter>
<filter id="filter21_f_9_3" x="38.5534" y="48.873" width="49.0005" height="47.7784" filterUnits="userSpaceOnUse" color-interpolation-filters="sRGB">
<feFlood flood-opacity="0" result="BackgroundImageFix"/>
<feBlend mode="normal" in="SourceGraphic" in2="BackgroundImageFix" result="shape"/>
<feGaussianBlur stdDeviation="10" result="effect1_foregroundBlur_9_3"/>
</filter>
<radialGradient id="paint0_radial_9_3" cx="0" cy="0" r="1" gradientUnits="userSpaceOnUse" gradientTransform="translate(30.4096 23.5691) rotate(75.1412) scale(60.4571 60.2679)">
<stop stop-color="#FFDE43"/>
<stop offset="1" stop-color="#FFBC00"/>
</radialGradient>
<radialGradient id="paint1_radial_9_3" cx="0" cy="0" r="1" gradientUnits="userSpaceOnUse" gradientTransform="translate(32.4842 31.3888) rotate(75.1412) scale(52.3669 52.203)">
<stop stop-color="white" stop-opacity="0.5"/>
<stop offset="0.782278"/>
</radialGradient>
<radialGradient id="paint2_radial_9_3" cx="0" cy="0" r="1" gradientUnits="userSpaceOnUse" gradientTransform="translate(32.4842 31.3888) rotate(75.1412) scale(52.3669 52.203)">
<stop stop-color="white" stop-opacity="0.5"/>
<stop offset="0.782278"/>
</radialGradient>
<radialGradient id="paint3_radial_9_3" cx="0" cy="0" r="1" gradientUnits="userSpaceOnUse" gradientTransform="translate(28.7208 17.2042) rotate(75.1412) scale(67.0422 90.3813)">
<stop offset="0.0922635" stop-color="white"/>
<stop offset="0.670207" stop-color="white" stop-opacity="0"/>
</radialGradient>
<linearGradient id="paint4_linear_9_3" x1="87.9372" y1="33.0167" x2="77.2766" y2="49.6028" gradientUnits="userSpaceOnUse">
<stop stop-color="#FF0000"/>
<stop offset="1" stop-color="#610003"/>
</linearGradient>
<linearGradient id="paint5_linear_9_3" x1="87.9375" y1="33.0166" x2="77.2768" y2="49.6028" gradientUnits="userSpaceOnUse">
<stop stop-color="#FF0000"/>
<stop offset="1" stop-color="#610003"/>
</linearGradient>
<linearGradient id="paint6_linear_9_3" x1="91.7113" y1="47.1617" x2="73.521" y2="35.5541" gradientUnits="userSpaceOnUse">
<stop stop-color="#FF8F00"/>
<stop offset="0.0143476" stop-color="#FF9001" stop-opacity="0.9857"/>
<stop offset="0.2987" stop-color="#FF9912" stop-opacity="0.7013"/>
<stop offset="0.6103" stop-color="#FF9F1C" stop-opacity="0.3897"/>
<stop offset="1" stop-color="#FFA11F" stop-opacity="0"/>
</linearGradient>
<linearGradient id="paint7_linear_9_3" x1="73.5641" y1="35.4976" x2="91.7543" y2="47.1051" gradientUnits="userSpaceOnUse">
<stop stop-color="#FF8F00"/>
<stop offset="0.0143476" stop-color="#FF9001" stop-opacity="0.9857"/>
<stop offset="0.2987" stop-color="#FF9912" stop-opacity="0.7013"/>
<stop offset="0.6103" stop-color="#FF9F1C" stop-opacity="0.3897"/>
<stop offset="1" stop-color="#FFA11F" stop-opacity="0"/>
</linearGradient>
<linearGradient id="paint8_linear_9_3" x1="87.9372" y1="33.0167" x2="77.2766" y2="49.6028" gradientUnits="userSpaceOnUse">
<stop stop-color="#FF0000"/>
<stop offset="1" stop-color="#610003"/>
</linearGradient>
<linearGradient id="paint9_linear_9_3" x1="48.3823" y1="68.8649" x2="55.7809" y2="67.887" gradientUnits="userSpaceOnUse">
<stop stop-color="#FFDE43"/>
<stop offset="0.2241" stop-color="#FED93F"/>
<stop offset="0.5058" stop-color="#FCC934"/>
<stop offset="0.8173" stop-color="#F9AF21"/>
<stop offset="1" stop-color="#F79D14"/>
</linearGradient>
<radialGradient id="paint10_radial_9_3" cx="0" cy="0" r="1" gradientUnits="userSpaceOnUse" gradientTransform="translate(52.0811 68.3725) rotate(-7.58313) scale(5.08246 5.1002)">
<stop stop-color="#743C1C"/>
<stop offset="0.4016" stop-color="#5E2E11"/>
<stop offset="1" stop-color="#401C02"/>
</radialGradient>
<radialGradient id="paint11_radial_9_3" cx="0" cy="0" r="1" gradientUnits="userSpaceOnUse" gradientTransform="translate(30.4096 23.5691) rotate(75.1413) scale(60.4571 60.268)">
<stop stop-color="#FFDE43"/>
<stop offset="1" stop-color="#FFBC00"/>
</radialGradient>
<radialGradient id="paint12_radial_9_3" cx="0" cy="0" r="1" gradientUnits="userSpaceOnUse" gradientTransform="translate(30.4096 23.5691) rotate(75.1413) scale(60.4571 60.268)">
<stop stop-color="#FFDE43"/>
<stop offset="1" stop-color="#FFBC00"/>
</radialGradient>
<linearGradient id="paint13_linear_9_3" x1="7.20643" y1="42.9059" x2="69.6831" y2="43.9204" gradientUnits="userSpaceOnUse">
<stop stop-color="#F2F2F2"/>
<stop offset="1" stop-color="#CCCCCC"/>
</linearGradient>
<linearGradient id="paint14_linear_9_3" x1="0.0157917" y1="32.9449" x2="72.8796" y2="32.9449" gradientUnits="userSpaceOnUse">
<stop offset="0.005618" stop-color="#F2F2F2"/>
<stop offset="0.5" stop-color="#F2F2F2"/>
<stop offset="0.584" stop-color="#EFEFEF"/>
<stop offset="1" stop-color="#E6E6E6"/>
</linearGradient>
<linearGradient id="paint15_linear_9_3" x1="3.74982" y1="31.084" x2="18.2215" y2="31.084" gradientUnits="userSpaceOnUse">
<stop stop-color="#CCCCCC"/>
<stop offset="1" stop-color="white"/>
</linearGradient>
<linearGradient id="paint16_linear_9_3" x1="54.4349" y1="22.8653" x2="68.2172" y2="22.8653" gradientUnits="userSpaceOnUse">
<stop stop-color="white"/>
<stop offset="1" stop-color="#CCCCCC"/>
</linearGradient>
<linearGradient id="paint17_linear_9_3" x1="58.161" y1="26.91" x2="72.8791" y2="26.91" gradientUnits="userSpaceOnUse">
<stop stop-color="#CCCCCC"/>
<stop offset="1" stop-color="white"/>
</linearGradient>
<linearGradient id="paint18_linear_9_3" x1="11.8229" y1="23.054" x2="34.9327" y2="23.054" gradientUnits="userSpaceOnUse">
<stop stop-color="white"/>
<stop offset="1" stop-color="#CCCCCC"/>
</linearGradient>
<linearGradient id="paint19_linear_9_3" x1="26.9735" y1="19.1776" x2="56.8638" y2="19.1776" gradientUnits="userSpaceOnUse">
<stop stop-color="#CCCCCC"/>
<stop offset="1" stop-color="white"/>
</linearGradient>
<linearGradient id="paint20_linear_9_3" x1="41.9186" y1="28.3564" x2="41.9186" y2="9.99888" gradientUnits="userSpaceOnUse">
<stop stop-color="#B3B3B3"/>
<stop offset="0.2536" stop-color="#C7C7C7" stop-opacity="0.7464"/>
<stop offset="1" stop-color="white" stop-opacity="0"/>
</linearGradient>
<linearGradient id="paint21_linear_9_3" x1="11.8893" y1="18.6946" x2="32.7654" y2="18.6946" gradientUnits="userSpaceOnUse">
<stop stop-color="#CCCCCC"/>
<stop offset="1" stop-color="white"/>
</linearGradient>
<linearGradient id="paint22_linear_9_3" x1="54.4349" y1="17.4379" x2="68.158" y2="17.4379" gradientUnits="userSpaceOnUse">
<stop stop-color="#CCCCCC"/>
<stop offset="1" stop-color="white"/>
</linearGradient>
<linearGradient id="paint23_linear_9_3" x1="26.9735" y1="15.8386" x2="56.8488" y2="15.8386" gradientUnits="userSpaceOnUse">
<stop stop-color="white"/>
<stop offset="1" stop-color="#CCCCCC"/>
</linearGradient>
<linearGradient id="paint24_linear_9_3" x1="0.015441" y1="41.9685" x2="11.4063" y2="41.9685" gradientUnits="userSpaceOnUse">
<stop stop-color="white"/>
<stop offset="1" stop-color="#CCCCCC"/>
</linearGradient>
<linearGradient id="paint25_linear_9_3" x1="0.0155036" y1="38.8898" x2="8.21447" y2="38.8898" gradientUnits="userSpaceOnUse">
<stop stop-color="#CCCCCC"/>
<stop offset="1" stop-color="white"/>
</linearGradient>
<linearGradient id="paint26_linear_9_3" x1="15.6811" y1="36.5065" x2="5.99221" y2="25.0013" gradientUnits="userSpaceOnUse">
<stop stop-color="#B3B3B3"/>
<stop offset="0.2536" stop-color="#C7C7C7" stop-opacity="0.7464"/>
<stop offset="1" stop-color="white" stop-opacity="0"/>
</linearGradient>
<linearGradient id="paint27_linear_9_3" x1="58.161" y1="26.91" x2="72.8791" y2="26.91" gradientUnits="userSpaceOnUse">
<stop stop-color="#B3B3B3"/>
<stop offset="0.2536" stop-color="#C7C7C7" stop-opacity="0.7464"/>
<stop offset="1" stop-color="white" stop-opacity="0"/>
</linearGradient>
<linearGradient id="paint28_linear_9_3" x1="72.2093" y1="28.1084" x2="67.6168" y2="20.1828" gradientUnits="userSpaceOnUse">
<stop stop-color="#CCCCCC"/>
<stop offset="1" stop-color="white"/>
</linearGradient>
<linearGradient id="paint29_linear_9_3" x1="3.74982" y1="26.4584" x2="12.6259" y2="26.4584" gradientUnits="userSpaceOnUse">
<stop stop-color="#CCCCCC"/>
<stop offset="0.651042" stop-color="white"/>
</linearGradient>
<radialGradient id="paint30_radial_9_3" cx="0" cy="0" r="1" gradientUnits="userSpaceOnUse" gradientTransform="translate(30.4096 23.5691) rotate(75.1413) scale(60.4571 60.268)">
<stop stop-color="#FFDE43"/>
<stop offset="1" stop-color="#FFBC00"/>
</radialGradient>
<linearGradient id="paint31_linear_9_3" x1="7.38039" y1="42.7887" x2="68.0064" y2="42.7887" gradientUnits="userSpaceOnUse">
<stop stop-color="#CCCCCC"/>
<stop offset="1" stop-color="white"/>
</linearGradient>
<radialGradient id="paint32_radial_9_3" cx="0" cy="0" r="1" gradientUnits="userSpaceOnUse" gradientTransform="translate(30.4096 23.5691) rotate(75.1412) scale(60.4571 60.2679)">
<stop stop-color="#FFDE43"/>
<stop offset="1" stop-color="#FFBC00"/>
</radialGradient>
<linearGradient id="paint33_linear_9_3" x1="7.38039" y1="42.7887" x2="68.0064" y2="42.7887" gradientUnits="userSpaceOnUse">
<stop stop-color="#CCCCCC"/>
<stop offset="1" stop-color="white"/>
</linearGradient>
<radialGradient id="paint34_radial_9_3" cx="0" cy="0" r="1" gradientUnits="userSpaceOnUse" gradientTransform="translate(30.4096 23.5691) rotate(75.1413) scale(60.4571 60.268)">
<stop stop-color="#FFDE43"/>
<stop offset="1" stop-color="#FFBC00"/>
</radialGradient>
<radialGradient id="paint35_radial_9_3" cx="0" cy="0" r="1" gradientUnits="userSpaceOnUse" gradientTransform="translate(66.2942 48.3594) scale(33.2302 33.3504)">
<stop stop-color="#FFDE43"/>
<stop offset="0.2821" stop-color="#FFDB40"/>
<stop offset="0.5258" stop-color="#FFD038"/>
<stop offset="0.7552" stop-color="#FFBE2B"/>
<stop offset="0.9747" stop-color="#FFA519"/>
<stop offset="1" stop-color="#FFA216"/>
</radialGradient>
<linearGradient id="paint36_linear_9_3" x1="74.4568" y1="92.2623" x2="62.2846" y2="58.5649" gradientUnits="userSpaceOnUse">
<stop offset="0.0409618" stop-color="#E65107"/>
<stop offset="0.2979" stop-color="#EE7F1A" stop-opacity="0.7321"/>
<stop offset="0.621" stop-color="#F7B230" stop-opacity="0.3952"/>
<stop offset="0.8651" stop-color="#FDD23E" stop-opacity="0.1406"/>
<stop offset="1" stop-color="#FFDE43" stop-opacity="0"/>
</linearGradient>
<linearGradient id="paint37_linear_9_3" x1="55.1984" y1="69.679" x2="65.1719" y2="81.522" gradientUnits="userSpaceOnUse">
<stop offset="0.0139674" stop-color="#FFDE43"/>
<stop offset="0.6477" stop-color="#FFB424" stop-opacity="0.3573"/>
<stop offset="1" stop-color="#FFA216" stop-opacity="0"/>
</linearGradient>
<radialGradient id="paint38_radial_9_3" cx="0" cy="0" r="1" gradientUnits="userSpaceOnUse" gradientTransform="translate(66.2942 48.3594) scale(33.2302 33.3504)">
<stop stop-color="#FFA316"/>
<stop offset="0.0654605" stop-color="#F69C1C"/>
<stop offset="0.2759" stop-color="#DD8A2C"/>
<stop offset="0.4959" stop-color="#CB7C37"/>
<stop offset="0.7295" stop-color="#C0753E"/>
<stop offset="1" stop-color="#BD7240"/>
</radialGradient>
<clipPath id="clip0_9_3">
<rect width="96" height="96" fill="white"/>
</clipPath>
</defs>
</svg>
